<svg width="44" height="36" viewBox="0 0 44 36" fill="none" xmlns="http://www.w3.org/2000/svg">
<rect x="2.49986" y="2.78575" width="39" height="30.4286" rx="6.64286" stroke="black" stroke-width="3.85714"/>
<path d="M7.68503 8.46955C7.15537 8.09121 6.41929 8.21389 6.04096 8.74356C5.66262 9.27322 5.7853 10.0093 6.31497 10.3876L7.68503 8.46955ZM22 20.1429L21.315 21.1019L22 21.5912L22.685 21.1019L22 20.1429ZM37.685 10.3876C38.2147 10.0093 38.3374 9.27322 37.959 8.74356C37.5807 8.21389 36.8446 8.09121 36.315 8.46955L37.685 10.3876ZM6.31497 10.3876L21.315 21.1019L22.685 19.1838L7.68503 8.46955L6.31497 10.3876ZM22.685 21.1019L37.685 10.3876L36.315 8.46955L21.315 19.1838L22.685 21.1019Z" fill="black"/>
</svg>
