<svg width="42" height="41" viewBox="0 0 42 41" fill="none" xmlns="http://www.w3.org/2000/svg">
<path d="M12.0352 40.2776C13.1087 40.2776 13.8998 39.7502 15.1993 38.6014L21.6592 32.9136H32.9971C38.6661 32.9136 41.849 29.6365 41.849 24.0429V9.40913C41.849 3.81552 38.6661 0.538452 32.9971 0.538452H8.98417C3.33405 0.538452 0.132324 3.81552 0.132324 9.40913V24.0429C0.132324 29.6554 3.42822 32.9136 8.85233 32.9136H9.62451V37.5278C9.62451 39.204 10.5097 40.2776 12.0352 40.2776ZM12.9769 36.0588V30.6912C12.9769 29.58 12.4872 29.1468 11.4325 29.1468H9.116C5.57526 29.1468 3.88023 27.3576 3.88023 23.9299V9.52213C3.88023 6.0944 5.57526 4.30519 9.116 4.30519H32.8841C36.406 4.30519 38.1011 6.0944 38.1011 9.52213V23.9299C38.1011 27.3576 36.406 29.1468 32.8841 29.1468H21.4521C20.3032 29.1468 19.7382 29.3352 18.9472 30.1639L12.9769 36.0588ZM11.4137 11.801H30.3793C31.0196 11.801 31.5469 11.2737 31.5469 10.6145C31.5469 9.97414 31.0196 9.44679 30.3793 9.44679H11.4137C10.7734 9.44679 10.2649 9.97414 10.2649 10.6145C10.2649 11.2737 10.7734 11.801 11.4137 11.801ZM11.4137 17.7901H30.3793C31.0196 17.7901 31.5469 17.2439 31.5469 16.5848C31.5469 15.9633 31.0196 15.4171 30.3793 15.4171H11.4137C10.7734 15.4171 10.2649 15.9633 10.2649 16.5848C10.2649 17.2439 10.7734 17.7901 11.4137 17.7901ZM11.4137 23.7604H23.7686C24.4278 23.7604 24.9363 23.2331 24.9363 22.5927C24.9363 21.9335 24.4278 21.4062 23.7686 21.4062H11.4137C10.7734 21.4062 10.2649 21.9335 10.2649 22.5927C10.2649 23.2331 10.7734 23.7604 11.4137 23.7604Z" fill="#1C1C1E"/>
</svg>
