<svg width="100" height="60" viewBox="0 0 100 60" fill="none" xmlns="http://www.w3.org/2000/svg">
<g clip-path="url(#clip0_18_377)">
<path d="M14.33 59.67C5.08 59.67 0 54.34 0 45V40.42C0 34.84 1.67 30.5 5.67 28.25C1.83 26.17 0 22.25 0 16.5V14.67C0 5.33 5.08 0 14.33 0C23.58 0 28.67 5.33 28.67 14.67V16.5C28.67 22.25 26.75 26.17 23 28.25C27 30.5 28.67 34.84 28.67 40.42V45C28.67 54.34 23.58 59.67 14.33 59.67ZM9.17 18.25C9.17 22.92 11.33 24.42 14.33 24.42C17.33 24.42 19.5 22.92 19.5 18.25V15C19.5 9.75 17.25 8.33 14.33 8.33C11.41 8.33 9.17 9.75 9.17 15V18.25ZM14.33 51.34C17.25 51.34 19.42 49.92 19.5 44.75V39.33C19.5 34.75 17.58 32.75 14.33 32.75C11.08 32.75 9.17 34.75 9.17 39.33V44.75C9.17 49.92 11.42 51.34 14.33 51.34Z" fill="#101010"/>
<path d="M85.4001 59.67C76.1501 59.67 71.0701 54.34 71.0701 45V40.42C71.0701 34.84 72.7301 30.5 76.7301 28.25C72.9001 26.17 71.0701 22.25 71.0701 16.5V14.67C71.0701 5.33 76.1501 0 85.4001 0C94.6501 0 99.7301 5.33 99.7301 14.67V16.5C99.7301 22.25 97.8201 26.17 94.0701 28.25C98.0701 30.5 99.7301 34.84 99.7301 40.42V45C99.7301 54.34 94.6501 59.67 85.4001 59.67ZM80.2301 18.25C80.2301 22.92 82.4001 24.42 85.4001 24.42C88.4001 24.42 90.5701 22.92 90.5701 18.25V15C90.5701 9.75 88.3201 8.33 85.4001 8.33C82.4801 8.33 80.2301 9.75 80.2301 15V18.25ZM85.4001 51.34C88.3201 51.34 90.4901 49.92 90.5701 44.75V39.33C90.5701 34.75 88.6501 32.75 85.4001 32.75C82.1501 32.75 80.2301 34.75 80.2301 39.33V44.75C80.2301 49.92 82.4801 51.34 85.4001 51.34Z" fill="#101010"/>
<path d="M49 25.2301V26.0701C49 28.4901 48.26 30.0701 46.62 30.8101C48.62 31.5801 49.37 33.3601 49.37 35.8101V37.7201C49.37 41.3501 47.46 43.3001 43.76 43.3001H38V19.8201H43.58C47.38 19.8201 49 21.6001 49 25.2301ZM41.65 23.1801V29.4001H43.09C44.47 29.4001 45.31 28.7901 45.31 26.9101V25.6001C45.31 23.9201 44.74 23.1801 43.43 23.1801H41.65ZM41.65 32.7601V40.0001H43.76C45.01 40.0001 45.68 39.4301 45.68 37.6801V35.6801C45.68 33.5001 44.97 32.8301 43.29 32.8301L41.65 32.7601Z" fill="#101010"/>
<path d="M54.5601 35.5401L49.8901 19.8201H53.7601L56.5801 30.5401L59.4001 19.8201H62.9301L58.2601 35.5401V43.3401H54.5601V35.5401Z" fill="#101010"/>
</g>
<defs>
<clipPath id="clip0_18_377">
<rect width="99.73" height="59.67" fill="white"/>
</clipPath>
</defs>
</svg>
