<svg width="102" height="62" viewBox="0 0 102 62" fill="none" xmlns="http://www.w3.org/2000/svg">
<g clip-path="url(#clip0_18_375)">
<path d="M15.08 60.42C5.83 60.42 0.75 55.09 0.75 45.75V41.17C0.75 35.59 2.42 31.25 6.42 29C2.58 26.92 0.75 23 0.75 17.25V15.42C0.75 6.08 5.83 0.75 15.08 0.75C24.33 0.75 29.42 6.08 29.42 15.42V17.25C29.42 23 27.5 26.92 23.75 29C27.75 31.25 29.42 35.59 29.42 41.17V45.75C29.42 55.09 24.33 60.42 15.08 60.42ZM9.92 19C9.92 23.67 12.08 25.17 15.08 25.17C18.08 25.17 20.25 23.67 20.25 19V15.75C20.25 10.5 18 9.08 15.08 9.08C12.16 9.08 9.92 10.5 9.92 15.75V19ZM15.08 52.09C18 52.09 20.17 50.67 20.25 45.5V40.08C20.25 35.5 18.33 33.5 15.08 33.5C11.83 33.5 9.92 35.5 9.92 40.08V45.5C9.92 50.67 12.17 52.09 15.08 52.09Z" stroke="#101010" stroke-width="1.5" stroke-miterlimit="10"/>
<path d="M86.1501 60.42C76.9001 60.42 71.8201 55.09 71.8201 45.75V41.17C71.8201 35.59 73.4801 31.25 77.4801 29C73.6501 26.92 71.8201 23 71.8201 17.25V15.42C71.8201 6.08 76.9001 0.75 86.1501 0.75C95.4001 0.75 100.48 6.08 100.48 15.42V17.25C100.48 23 98.5701 26.92 94.8201 29C98.8201 31.25 100.48 35.59 100.48 41.17V45.75C100.48 55.09 95.4001 60.42 86.1501 60.42ZM81.0001 19C81.0001 23.67 83.1701 25.17 86.1701 25.17C89.1701 25.17 91.3401 23.67 91.3401 19V15.75C91.3401 10.5 89.0901 9.08 86.1701 9.08C83.2501 9.08 81.0001 10.5 81.0001 15.75V19ZM86.1701 52.09C89.0901 52.09 91.2601 50.67 91.3401 45.5V40.08C91.3401 35.5 89.4201 33.5 86.1701 33.5C82.9201 33.5 81.0001 35.5 81.0001 40.08V45.5C81.0001 50.67 83.2301 52.09 86.1501 52.09H86.1701Z" stroke="#101010" stroke-width="1.5" stroke-miterlimit="10"/>
<path d="M49.77 26.0001V26.8401C49.77 29.2601 49.03 30.8401 47.39 31.5801C49.39 32.3501 50.14 34.1301 50.14 36.5801V38.4901C50.14 42.1201 48.23 44.0701 44.53 44.0701H38.72V20.5701H44.3C48.13 20.5701 49.77 22.3501 49.77 26.0001ZM42.42 23.9501V30.1701H43.86C45.24 30.1701 46.08 29.5601 46.08 27.6801V26.3501C46.08 24.6701 45.51 23.9301 44.2 23.9301L42.42 23.9501ZM42.42 33.5301V40.7501H44.53C45.78 40.7501 46.45 40.1801 46.45 38.4301V36.4301C46.45 34.2501 45.74 33.5801 44.06 33.5801L42.42 33.5301Z" stroke="#101010" stroke-width="1.5" stroke-miterlimit="10"/>
<path d="M55.3101 36.2901L50.6401 20.5701H54.5101L57.3301 31.2901L60.1501 20.5701H63.6801L59.0001 36.2901V44.0901H55.3001L55.3101 36.2901Z" stroke="#101010" stroke-width="1.5" stroke-miterlimit="10"/>
</g>
<defs>
<clipPath id="clip0_18_375">
<rect width="101.23" height="61.17" fill="white"/>
</clipPath>
</defs>
</svg>
