<svg xmlns="http://www.w3.org/2000/svg" width="569" height="660" fill="none">
  <mask id="a" maskUnits="userSpaceOnUse" x="-.4" y="0" width="569" height="660" fill="#000">
    <path fill="#fff" d="M-.4 0h569v660H-.4z"/>
    <path fill-rule="evenodd" clip-rule="evenodd" d="M284.2 320.3v329.5l274.6-164.7V155.5L284.2 10 9.6 155.5v329.6l274.6 164.7V320.3z"/>
  </mask>
  <path fill-rule="evenodd" clip-rule="evenodd" d="M284.2 320.3v329.5l274.6-164.7V155.5L284.2 10 9.6 155.5v329.6l274.6 164.7V320.3z" fill="#CECECE" fill-opacity=".2"/>
  <path d="M284.2 320.3h4.7c0-1.6-.8-3.2-2.2-4l-2.5 4zm0 0l2.5-4a4.7 4.7 0 00-7.2 4h4.7zm0 329.5h-4.7a4.7 4.7 0 007.1 4l-2.4-4zm274.6-164.7l2.5 4a4.7 4.7 0 002.2-4h-4.7zm0-329.6h4.7v-.4l-4.7.4zm0 0l4.7-.4a4.7 4.7 0 00-7.2-3.6l2.5 4zm0 0l-2.2 4.2c1.5.8 3.3.8 4.7-.1l-2.5-4zM284.2 10l2.2-4.2c-1.4-.7-3-.7-4.4 0l2.2 4.2zM9.6 155.5l-2.4 4.1c1.4.9 3.2.9 4.6.1l-2.2-4.2zm0 0l2.4-4a4.7 4.7 0 00-7.1 4h4.7zm0 329.6H4.9c0 1.6.8 3.2 2.3 4l2.4-4zm274.6 164.7l-2.4 4a4.7 4.7 0 007.1-4h-4.7zm2.5-333.5l-5 8 5-8zm0 0l-5 8 5-8zm-7.2 4v33h9.4v-33h-9.4zm0 76.9v65.9h9.4v-66h-9.4zm0 109.8v66h9.4v-66h-9.4zm0 109.9v33h9.4v-33h-9.4zm7.1 28.9l-27.4-16.5-4.9 8.1 27.5 16.5 4.8-8.1zm-64-38.5l-55-33-4.8 8.2 54.9 33 4.9-8.2zM131 552.4l-54.9-33-4.9 8.2 55 33 4.8-8.2zm-91.5-55L12 481l-4.8 8.1 27.4 16.5 4.9-8.1zm-25.2-12.3v-33H5v33h9.4zm0-77v-65.8H5v65.9h9.4zm0-109.8v-65.9H5v66h9.4zm0-109.8v-33H5v33h9.4zm-7.1-28.9l4.8-8.1-4.8 8.1zm0 0l4.8-8.1-4.8 8.1zm4.6.1l27.5-14.5-4.5-8.4-27.4 14.6 4.4 8.3zm64-34l55-29-4.4-8.4-55 29.1 4.5 8.4zm91.6-48.4l55-29.2-4.5-8.3-55 29 4.5 8.5zM259 28.7l27.4-14.5-4.4-8.4-27.5 14.6 4.5 8.3zm23-14.5l27.4 14.5 4.5-8.3-27.5-14.6-4.4 8.4zm64 34l55 29 4.4-8.3-54.9-29.1-4.4 8.3zm91.6 48.5l55 29 4.4-8.3-55-29.1-4.4 8.4zm91.5 48.5l27.5 14.5 4.4-8.3-27.4-14.6-4.5 8.4zm32.2 14.4l-5-8 5 8zm0 0l-5-8 5 8zm-7.2-3.7l9.4-.8-9.4.8zm0 0l9.4-.8-9.4.9zm0-.4v33h9.4v-33h-9.4zm0 77v65.8h9.4v-65.9h-9.4zm0 109.8v65.9h9.4v-66h-9.4zm0 109.8v33h9.4v-33h-9.4zm2.3 29l-27.5 16.4 4.9 8.1 27.5-16.5-5-8zm-64.1 38.4l-55 33 5 8 54.9-33-4.9-8zm-91.5 54.9l-55 33 5 8 54.8-32.9-4.8-8.1zm-91.6 54.9l-27.4 16.5 4.8 8 27.5-16.4-4.9-8.1zM289 649.8v-33h-9.4v33h9.4zm0-76.9V507h-9.4v66h9.4zm0-109.8v-66h-9.4v66h9.4zm0-109.8v-33h-9.4v33h9.4zm-4.7-33h9.5c0-3.3-1.8-6.4-4.6-8l-4.9 8zm0 0l5-8a9.5 9.5 0 00-14.5 8h9.5zm0 329.5h-9.5a9.5 9.5 0 0014.4 8.2l-4.9-8.2zm274.6-164.7l4.9 8a9.5 9.5 0 004.6-8h-9.5zm0-329.6h9.5v-.8l-9.5.8zm0 0l9.4-.8a9.5 9.5 0 00-14.4-7.2l5 8zm0 0l-4.4 8.4c3 1.6 6.5 1.5 9.4-.3l-5-8zM284.2 10l4.4-8.4a9.5 9.5 0 00-8.8 0l4.4 8.4zM9.6 155.5l-4.9 8.2a9.5 9.5 0 009.3.2l-4.4-8.4zm0 0l4.9-8a9.5 9.5 0 00-14.4 8h9.5zm0 329.6H.1c0 3.3 1.8 6.4 4.6 8l4.9-8zm274.6 164.7l-4.9 8.2a9.5 9.5 0 0014.4-8.2h-9.5zm5-337.6l-10 16.2 10-16.2zm0 0l-10 16.2 10-16.2zm-14.5 8.1v33h19v-33h-19zm0 76.9v65.9h19v-66h-19zm0 109.8v66h19v-66h-19zm0 109.9v33h19v-33h-19zm14.4 24.8l-27.5-16.5-9.7 16.3 27.4 16.5 9.8-16.3zM225 603.3l-55-33-9.7 16.3 55 33 9.7-16.3zm-91.5-55l-55-33-9.7 16.3 55 33 9.7-16.3zm-91.6-54.9L14.5 477l-9.8 16.3 27.5 16.5 9.7-16.3zm-22.8-8.3v-33H0v33h19zm0-77v-65.8H0v65.9h19zm0-109.8v-65.9H0v66h19zm0-109.8v-33H0v33h19zM4.7 163.7l9.8-16.3-9.8 16.3zm0 0l9.8-16.3-9.8 16.3zm9.3.2l27.5-14.5-8.9-16.8-27.4 14.6 8.8 16.7zm64.1-34l55-29-9-16.8-54.9 29.1 9 16.7zm91.5-48.5l55-29-8.9-16.8-55 29.1 9 16.7zM261.2 33l27.4-14.5-8.8-16.8-27.5 14.6 8.9 16.7zm18.6-14.5l27.4 14.5 8.9-16.7-27.5-14.6-8.8 16.8zm64 34l55 29 8.8-16.7-54.9-29.1-8.9 16.7zm91.6 48.4l54.9 29.1 8.9-16.7-55-29-8.8 16.6zm91.5 48.6l27.5 14.5 8.8-16.7-27.4-14.6-8.9 16.8zm36.9 14.2l-10-16.1 10 16zm0 0l-10-16.1 10 16zm-14.4-7.2l18.8-1.7-18.8 1.7zm0 0l18.8-1.7-18.8 1.7zm0-.9v33h18.9v-33h-19zm0 77v65.8h18.9v-65.9h-19zm0 109.8v65.9h18.9v-66h-19zm0 109.8v33h18.9v-33h-19zm4.5 24.8l-27.4 16.5 9.7 16.3 27.5-16.5-9.8-16.3zm-64 38.5l-55 33 9.8 16.2 55-33-9.8-16.2zm-91.6 55l-54.9 32.9 9.8 16.2 54.9-33-9.8-16.2zm-91.5 54.8l-27.5 16.5 9.8 16.3 27.4-16.5-9.7-16.3zm-13.1 24.6v-33h-19v33h19zm0-76.9V507h-19v66h19zm0-109.8v-66h-19v66h19zm0-109.8v-33h-19v33h19z" fill="#D2513D" mask="url(#a)"/>
  <path d="M353.2 363.9h-40.3c26.4-18.7 39.6-38.7 39.6-60.3 0-35.7-29.3-56.8-71.6-56.8-40.2 0-63.4 22-66 24.6l30.5 30.2s13-11.8 35.5-11.8c20.2 0 25.9 9.7 25.9 16.3 0 18.9-55.5 45.3-91.8 57.8V407h138.2V364z" fill="#D2513D"/>
</svg>