<svg xmlns="http://www.w3.org/2000/svg" width="569" height="660" fill="none">
  <mask id="a" maskUnits="userSpaceOnUse" x="-.2" y="0" width="569" height="660" fill="#000">
    <path fill="#fff" d="M-.2 0h569v660H-.2z"/>
    <path fill-rule="evenodd" clip-rule="evenodd" d="M284.4 320.3v329.5L559 485.1V155.5L284.4 10 9.8 155.5v329.6l274.6 164.7V320.3z"/>
  </mask>
  <path fill-rule="evenodd" clip-rule="evenodd" d="M284.4 320.3v329.5L559 485.1V155.5L284.4 10 9.8 155.5v329.6l274.6 164.7V320.3z" fill="#CECECE" fill-opacity=".2"/>
  <path d="M284.4 320.3l-2.5 4c1.4 1 3.3 1 4.9.1l-2.4-4zm0 0l2.5-4a4.7 4.7 0 00-7.2 4h4.7zm0 0h4.7a4.7 4.7 0 00-7-4.1l2.3 4.1zm0 329.5h-4.7a4.7 4.7 0 007.1 4l-2.4-4zM559 485.1l2.4 4a4.7 4.7 0 002.3-4H559zm0-329.6h4.7a4.7 4.7 0 00-7.1-4l2.4 4zm0 0l-2.2 4.2c1.4.8 3.2.8 4.6 0l-2.4-4.2zM284.4 10l2.2-4.2c-1.4-.7-3-.7-4.4 0l2.2 4.2zM9.8 155.5l-2.4 4.1c1.4.9 3.2.9 4.6.1l-2.2-4.2zm0 0l2.4-4a4.7 4.7 0 00-7.1 4h4.7zm0 329.6H5c0 1.6.8 3.2 2.3 4l2.4-4zm274.6 164.7l-2.4 4a4.7 4.7 0 007.1-4h-4.7zm2.5-333.5l-5 8 5-8zm0 0l-5 8 5-8zm-7.2 4v33h9.4v-33h-9.4zm0 76.9v65.9h9.4v-66h-9.4zm0 109.8v66h9.4v-66h-9.4zm0 109.9v33h9.4v-33h-9.4zm7.1 28.9l-27.4-16.5-4.9 8.1L282 654l4.8-8.1zm-64-38.5l-55-33-4.8 8.2 54.9 33 4.9-8.2zm-91.6-54.9l-54.9-33-4.9 8.2 55 33 4.8-8.2zm-91.5-55L12.2 481l-4.8 8.1 27.4 16.5 4.9-8.1zm-25.2-12.3v-33H5.1v33h9.4zm0-77v-65.8H5.1v65.9h9.4zm0-109.8v-65.9H5.1v66h9.4zm0-109.8v-33H5.1v33h9.4zm-7.1-28.9l4.8-8.1-4.8 8.1zm0 0l4.8-8.1-4.8 8.1zm4.6.1l27.5-14.5-4.5-8.4-27.4 14.6 4.4 8.3zm64-34l55-29-4.4-8.4-55 29.1 4.5 8.4zm91.6-48.4l55-29.2-4.5-8.3-55 29 4.5 8.5zm91.6-48.6l27.4-14.5-4.4-8.4-27.5 14.6 4.5 8.3zm23-14.5l27.4 14.5 4.5-8.3-27.5-14.6-4.4 8.4zm64 34l55 29 4.4-8.3-55-29.1-4.3 8.3zm91.6 48.5l55 29 4.3-8.3-54.9-29.1-4.4 8.4zm91.5 48.5l27.5 14.5 4.4-8.3-27.4-14.6-4.5 8.4zm32.1 14.4l-4.8-8.1 4.8 8.1zm0 0l-4.8-8.1 4.8 8.1zm-7.1-4v32.9h9.4v-33h-9.4zm0 76.8v66h9.4v-66h-9.4zm0 109.9v65.9h9.4v-66h-9.4zm0 109.8v33h9.4v-33h-9.4zm2.3 29L529 497.4l4.9 8.1 27.4-16.5-4.8-8zm-64.1 38.4l-55 33 5 8 54.9-33-4.9-8zM401 574.4l-55 33 5 8 54.8-32.9-4.8-8.1zm-91.6 54.9L282 645.8l4.8 8 27.5-16.4-4.9-8.1zm-20.3 20.5v-33h-9.4v33h9.4zm0-76.9V507h-9.4v66h9.4zm0-109.8v-66h-9.4v66h9.4zm0-109.8v-33h-9.4v33h9.4zm-7-37.1l4.7 8.2-4.7-8.2zm0 0l4.7 8.2-4.7-8.2zm2.3 4.1l-5 8c2.9 1.9 6.6 2 9.7.2l-4.7-8.2zm0 0l5-8a9.5 9.5 0 00-14.5 8h9.5zm0 0h9.5a9.5 9.5 0 00-14.2-8.2l4.7 8.2zm0 329.5h-9.5a9.5 9.5 0 0014.4 8.2l-4.9-8.2zM559 485.1l4.9 8a9.5 9.5 0 004.6-8H559zm0-329.6h9.5a9.5 9.5 0 00-14.3-8.1l4.8 8.1zm0 0l-4.4 8.4c2.9 1.6 6.4 1.5 9.2-.2l-4.8-8.2zM284.4 10l4.4-8.4a9.5 9.5 0 00-8.8 0l4.4 8.4zM9.8 155.5l-4.9 8.2a9.5 9.5 0 009.3.2l-4.4-8.4zm0 0l4.8-8a9.5 9.5 0 00-14.3 8h9.5zm0 329.6H.3c0 3.3 1.8 6.4 4.6 8l4.9-8zm274.6 164.7l-4.9 8.2a9.5 9.5 0 0014.4-8.2h-9.5zm5-337.5l-10 16 10-16zm0 0l-10 16 10-16zm-14.5 8v33h19v-33h-19zm0 76.9v65.9h19v-66h-19zm0 109.8v66h19v-66h-19zm0 109.9v33h19v-33h-19zm14.4 24.8l-27.5-16.5-9.7 16.3 27.4 16.5 9.8-16.3zm-64.1-38.4l-55-33-9.7 16.3 55 33 9.7-16.3zm-91.5-55l-55-33-9.7 16.3 55 33 9.7-16.3zM42 493.4L14.7 477l-9.8 16.3 27.5 16.5 9.7-16.3zm-22.8-8.3v-33H.3v33h19zm0-77v-65.8H.3v65.9h19zm0-109.8v-65.9H.3v66h19zm0-109.8v-33H.3v33h19zM4.9 163.7l9.7-16.3L5 163.7zm0 0l9.7-16.3L5 163.7zm9.3.2l27.5-14.5-8.9-16.8-27.4 14.6 8.8 16.7zm64.1-34l55-29-9-16.8-54.9 29.1 9 16.7zm91.5-48.5l55-29-9-16.8L161 64.7l8.8 16.7zM261.4 33l27.4-14.5L280 1.6l-27.5 14.6 8.9 16.7zM280 18.4l27.4 14.5 8.9-16.7-27.5-14.6-8.8 16.8zm64 34l55 29 8.8-16.7L353 35.6 344 52.3zm91.6 48.4l54.9 29.1 8.9-16.7-55-29-8.8 16.6zm91.5 48.6l27.5 14.5 8.8-16.7-27.4-14.6-8.9 16.8zm36.7 14.3l-9.6-16.3 9.6 16.3zm0 0l-9.6-16.3 9.6 16.3zm-14.3-8.2v33h19v-33h-19zm0 77v65.8h19v-65.9h-19zm0 109.8v65.9h19v-66h-19zm0 109.8v33h19v-33h-19zm4.6 24.8l-27.4 16.5 9.7 16.3 27.5-16.5-9.8-16.3zm-64 38.5l-55 33 9.8 16.2 55-33-9.8-16.2zm-91.6 55l-54.9 32.9 9.7 16.2 55-33-9.8-16.2zM307 625.1l-27.5 16.5 9.8 16.3 27.4-16.5-9.7-16.3zm-13.1 24.6v-33h-19v33h19zm0-76.9V507h-19v66h19zm0-109.8v-66h-19v66h19zm0-109.8v-33h-19v33h19zM279.7 312l9.4 16.4-9.4-16.4zm0 0l9.4 16.4-9.4-16.4z" fill="#D2513D" mask="url(#a)"/>
  <path d="M346 249.3h-52.3v76.1h-34.5l29.3-76h-52.3l-45.7 118.8h103.2v39.5H346v-39.3h19.3v-43H346v-76z" fill="#D2513D"/>
</svg>