<svg width="569" height="713" viewBox="0 0 569 713" fill="none" xmlns="http://www.w3.org/2000/svg">
  <path d="M0.515625 201.727L284.556 372.151V713L0.515625 542.576V201.727Z" fill="#274F69" />
  <path d="M568.597 201.727L284.556 372.151V713L568.597 542.576V201.727Z" fill="#1E3C50" />
  <g filter="url(#filter0_d)">
    <circle cx="284.556" cy="511.331" r="94.6802" fill="#2F8F3F" />
  </g>
  <path d="M284.556 361.108L19.7697 202.237L284.556 61.8997L549.343 202.237L284.556 361.108Z" fill="#ADDEFC" stroke="#D2513D" stroke-width="18.936" />
  <path d="M119.815 181.843H449.302L472.025 215.928H97.0913L119.815 181.843Z" fill="#0D3446" />
  <rect x="142.536" y="0.0576172" width="284.041" height="215.871" fill="url(#paint0_linear)" />
  <path d="M323.056 95.57C326.105 91.4609 327.96 86.8216 327.96 81.9171C327.96 60.046 309.005 52.8882 291.243 52.8882H278.518H277.856C260.094 52.8882 241.139 60.046 241.139 81.9171C241.139 86.8216 242.994 91.4609 246.043 95.57C239.548 100.342 235.174 107.765 235.174 118.767C235.174 135.468 254.659 149.121 271.891 149.121H297.208C314.307 149.121 333.925 135.468 333.925 118.767C333.925 107.765 329.551 100.342 323.056 95.57ZM280.374 75.2895H288.592C294.425 75.2895 297.341 78.6033 297.341 81.7846C297.341 84.8333 294.557 88.4122 288.725 88.4122H280.374C274.542 88.4122 271.758 84.8333 271.758 81.7846C271.758 78.6033 274.542 75.2895 280.374 75.2895ZM294.69 125.394H274.409C268.577 125.394 265.793 121.683 265.793 118.502C265.793 115.32 268.577 111.741 274.409 111.741H294.557C300.389 111.741 303.306 115.32 303.306 118.502C303.306 121.683 300.522 125.394 294.69 125.394Z" fill="#0D3446" />
  <path d="M279.52 550.266L232.542 488.895C230.405 486.103 230.926 482.108 233.709 479.958C236.168 478.057 239.639 478.203 241.93 480.303L284.582 519.394L379.578 408.752C384.602 402.9 393.196 401.704 399.627 405.962C407.482 411.163 408.814 422.16 402.428 429.085L290.228 550.756C287.281 553.953 282.163 553.718 279.52 550.266Z" fill="#FFF2DF" />
  <defs>
    <filter id="filter0_d" x="152.004" y="397.714" width="265.105" height="265.105" filterUnits="userSpaceOnUse" color-interpolation-filters="sRGB">
      <feFlood flood-opacity="0" result="BackgroundImageFix" />
      <feColorMatrix in="SourceAlpha" type="matrix" values="0 0 0 0 0 0 0 0 0 0 0 0 0 0 0 0 0 0 127 0" result="hardAlpha" />
      <feOffset dy="18.936" />
      <feGaussianBlur stdDeviation="18.936" />
      <feColorMatrix type="matrix" values="0 0 0 0 0 0 0 0 0 0 0 0 0 0 0 0 0 0 0.25 0" />
      <feBlend mode="normal" in2="BackgroundImageFix" result="effect1_dropShadow" />
      <feBlend mode="normal" in="SourceGraphic" in2="effect1_dropShadow" result="shape" />
    </filter>
    <linearGradient id="paint0_linear" x1="284.556" y1="161.014" x2="284.556" y2="284.098" gradientUnits="userSpaceOnUse">
      <stop offset="0.226012" stop-color="#FFF2DF" />
      <stop offset="0.555576" stop-color="#AFABA3" />
    </linearGradient>
  </defs>
</svg>