<svg xmlns="http://www.w3.org/2000/svg" width="569" height="660" fill="none">
  <mask id="a" maskUnits="userSpaceOnUse" x="-.4" y=".2" width="569" height="660" fill="#000">
    <path fill="#fff" d="M-.4.2h569v660H-.4z"/>
    <path fill-rule="evenodd" clip-rule="evenodd" d="M558.8 155.7v329.5L284.2 650V320.5 650L9.6 485.2V155.7L284.2 10.2l274.6 145.5z"/>
  </mask>
  <path fill-rule="evenodd" clip-rule="evenodd" d="M558.8 155.7v329.5L284.2 650V320.5 650L9.6 485.2V155.7L284.2 10.2l274.6 145.5z" fill="#CECECE" fill-opacity=".2"/>
  <path d="M558.8 155.7l-2.4-4a4.7 4.7 0 00-2.3 4h4.7zm0 329.5l2.5 4.1a4.7 4.7 0 002.2-4h-4.7zM284.2 650h-4.7a4.7 4.7 0 007.1 4l-2.4-4zm0-329.5h4.7c0-1.5-.6-2.9-1.8-3.8l-2.9 3.8zm0 0l2.9-3.8a4.7 4.7 0 00-7.6 3.8h4.7zm0 329.5l-2.4 4a4.7 4.7 0 007.1-4h-4.7zM9.6 485.2H4.9c0 1.7.8 3.2 2.3 4.1l2.4-4zm0-329.5l2.6-4a4.7 4.7 0 00-7.3 4h4.7zm0 0l-2.6 4c1.4 1 3.3 1 4.8.2l-2.2-4.2zM284.2 10.2l2.2-4.2c-1.4-.8-3-.8-4.4 0l2.2 4.2zm274.6 145.5l4.1-2.3a4.7 4.7 0 00-1.9-1.9l-2.2 4.2zm0 0l2.4 4c2.3-1.2 3-4.1 1.7-6.3l-4 2.3zm-4.7 0v33h9.4v-33h-9.4zm0 76.9v65.9h9.4v-65.9h-9.4zm0 109.8v66h9.4v-66h-9.4zm0 109.9v33h9.4v-33h-9.4zm2.3 28.9l-27.5 16.5 4.9 8 27.5-16.4-5-8.1zm-64.1 38.4l-55 33 5 8 54.9-32.9-4.9-8zm-91.5 55l-55 32.9 5 8.1 54.8-33-4.8-8zm-91.6 54.9l-27.4 16.4 4.8 8.2 27.5-16.5-4.9-8.1zM289 650v-33h-9.4v33h9.4zm0-76.9v-65.9h-9.4v66h9.4zm0-109.8v-66h-9.4v66h9.4zm0-109.9v-33h-9.4v33h9.4zm-1.8-36.7l-5.8 7.5 5.8-7.5zm0 0l-5.8 7.5 5.8-7.5zm-7.6 3.8v33h9.4v-33h-9.4zm0 76.9v65.9h9.4v-66h-9.4zm0 109.8v66h9.4v-66h-9.4zm0 109.8v33h9.4v-33h-9.4zm7.1 29l-27.4-16.5-4.9 8 27.5 16.6 4.8-8.2zm-64-38.5l-55-33-4.8 8.2 54.9 33 4.9-8.2zm-91.6-55l-54.9-32.9-4.9 8.1 55 33 4.8-8.1zm-91.5-54.8L12 481.2l-4.8 8.1 27.4 16.5 4.9-8.1zm-25.2-12.5v-33H5v33h9.4zm0-76.9v-65.9H5v66h9.4zm0-109.8v-65.9H5v65.9h9.4zm0-109.8v-33H5v33h9.4zm-7.3-29l5.2-8-5.2 8zm0 0l5.2-8-5.2 8zm4.8.2l27.5-14.6-4.5-8.3-27.4 14.5 4.4 8.4zm64-34l55-29-4.4-8.4-55 29L76 126zm91.6-48.5l55-29-4.5-8.5-55 29.2 4.5 8.3zM259 29l27.4-14.5L282 6l-27.5 14.5L259 29zm23-14.5l27.5 14.5 4.4-8.4L286.4 6l-4.4 8.4zm64 34l55 29 4.4-8.3-54.9-29.2-4.4 8.4zm91.6 48.4l55 29.1 4.4-8.3-55-29.1-4.4 8.3zm91.5 48.5l27.5 14.6 4.4-8.4-27.4-14.5-4.5 8.3zm25.6 12.8l8.2-4.7-8.2 4.7zm0 0l8.2-4.7-8.2 4.7zm1.7-6.5l4.8 8.2-4.8-8.2zm0 0l4.8 8.2-4.8-8.2zm2.4 4.1l-4.8-8.1a9.5 9.5 0 00-4.7 8.1h9.5zm0 329.5l4.9 8.2a9.5 9.5 0 004.6-8.2h-9.5zM284.2 650h-9.5a9.5 9.5 0 0014.4 8.1l-4.9-8.1zm0-329.5h9.5c0-3-1.4-5.8-3.8-7.6l-5.7 7.6zm0 0l5.7-7.6a9.5 9.5 0 00-15.2 7.6h9.5zm0 329.5l-4.9 8.1a9.5 9.5 0 0014.4-8.1h-9.5zM9.6 485.2H.1c0 3.4 1.8 6.4 4.6 8.2l4.9-8.2zm0-329.5l5.3-7.8A9.5 9.5 0 000 155.7h9.5zm0 0l-5.3 7.9c3 2 6.6 2.1 9.7.5l-4.4-8.4zM284.2 10.2l4.4-8.4a9.5 9.5 0 00-8.8 0l4.4 8.4zm274.6 145.5l8.2-4.7a9.5 9.5 0 00-3.8-3.7l-4.4 8.4zm0 0l4.8 8.2c4.5-2.7 6-8.4 3.4-12.9l-8.2 4.7zm-9.5 0v33h19v-33h-19zm0 76.9v65.9h19v-65.9h-19zm0 109.8v66h19v-66h-19zm0 109.9v33h19v-33h-19zM554 477l-27.4 16.5 9.7 16.2 27.5-16.4-9.8-16.3zm-64 38.5l-55 33 9.8 16.2 55-33-9.8-16.2zm-91.6 54.9l-54.9 33 9.8 16.2 54.9-33-9.8-16.2zm-91.5 54.9l-27.5 16.5 9.8 16.2 27.4-16.5-9.7-16.2zM293.7 650v-33h-19v33h19zm0-76.9v-65.9h-19v66h19zm0-109.8v-66h-19v66h19zm0-109.9v-33h-19v33h19zm-3.8-40.5L278.5 328l11.4-15zm0 0L278.5 328l11.4-15zm-15.2 7.6v33h19v-33h-19zm0 76.9v65.9h19v-66h-19zm0 109.8v66h19v-66h-19zm0 109.8v33h19v-33h-19zm14.4 24.9l-27.5-16.5-9.7 16.2 27.4 16.5 9.8-16.2zM225 603.4l-55-33-9.7 16.3 55 33 9.7-16.3zm-91.5-54.9l-55-33-9.7 16.3 55 33 9.7-16.3zm-91.6-55l-27.4-16.4-9.8 16.3 27.5 16.4 9.7-16.2zm-22.8-8.3v-33H0v33h19zm0-76.9v-65.9H0v66h19zm0-109.8v-65.9H0v65.9h19zm0-109.8v-33H0v33h19zM4.3 163.6L15 147.9 4.3 163.6zm0 0L15 147.9 4.3 163.6zm9.7.5l27.5-14.6-8.9-16.7-27.4 14.5 8.8 16.8zm64.1-34l55-29-9-16.8-54.9 29 9 16.8zm91.5-48.5l55-29.1-8.9-16.7-55 29 9 16.8zm91.6-48.5l27.4-14.6-8.8-16.7-27.5 14.6 8.9 16.7zm18.6-14.6l27.4 14.6 8.9-16.7-27.5-14.6-8.8 16.7zm64 34l55 29.1 8.8-16.7-54.9-29.1-8.9 16.7zm91.6 48.5l54.9 29.1 8.9-16.7-55-29.1-8.8 16.7zm91.5 48.5l27.5 14.6 8.8-16.8-27.4-14.5-8.9 16.7zm23.7 11L567 151l-16.4 9.4zm0 0L567 151l-16.4 9.4zm3.4-13l9.6 16.4-9.6-16.3zm0 0l9.6 16.4-9.6-16.3z" fill="#D2513D" mask="url(#a)"/>
  <path d="M285.6 401c32 0 77.7-11.9 77.7-51.9 0-35.2-37.3-51.6-77.7-51.6-18.2 0-26 1.6-34.3 4.6 6.3-12.3 19-19 35.9-19.4l.2.3c8 0 15 2 20.5 5.6l35.9-30.2a90.5 90.5 0 00-50-18.4l-10.5-.2c-42 0-85.4 35.2-85.4 78.6v5.5c0 51.8 43.2 77 87.7 77zm-.5-60.5c12.8 0 25.5 2.2 25.5 8.6 0 5.5-12.3 8.6-25 8.6h-.2c-12.8 0-25-2.2-25-9 0-6.4 12-8.2 24.7-8.2z" fill="#D2513D"/>
</svg>