<svg width="569" height="713" viewBox="0 0 569 713" fill="none" xmlns="http://www.w3.org/2000/svg">
  <path d="M0 201.669L284.041 372.094V712.942L0 542.518V201.669Z" fill="#274F69" />
  <path d="M568.081 201.669L284.04 372.094V712.942L568.081 542.518V201.669Z" fill="#1E3C50" />
  <g filter="url(#filter0_d)">
    <circle cx="284.041" cy="511.273" r="94.6802" fill="#2F8F3F" />
  </g>
  <path d="M284.041 361.051L19.2541 202.179L284.041 61.8421L548.827 202.179L284.041 361.051Z" fill="#ADDEFC" stroke="#D2513D" stroke-width="18.936" />
  <path d="M119.298 181.786H448.785L471.509 215.871H96.5752L119.298 181.786Z" fill="#0D3446" />
  <rect x="142.021" width="284.041" height="215.871" fill="url(#paint0_linear)" />
  <path d="M269.522 147.473H318.036V120.83H300.274V54.6863H283.573L255.472 61.7116V86.8965L269.522 83.3176V120.83H251.76V147.473H269.522Z" fill="#0D3446" />
  <path d="M279.005 550.208L232.027 488.837C229.89 486.045 230.411 482.05 233.194 479.9C235.653 478 239.123 478.146 241.415 480.246L284.067 519.336L379.063 408.694C384.087 402.843 392.681 401.647 399.112 405.904C406.967 411.105 408.299 422.102 401.913 429.028L289.713 550.699C286.765 553.895 281.648 553.66 279.005 550.208Z" fill="#FFF2DF" />
  <defs>
    <filter id="filter0_d" x="151.488" y="397.657" width="265.105" height="265.105" filterUnits="userSpaceOnUse" color-interpolation-filters="sRGB">
      <feFlood flood-opacity="0" result="BackgroundImageFix" />
      <feColorMatrix in="SourceAlpha" type="matrix" values="0 0 0 0 0 0 0 0 0 0 0 0 0 0 0 0 0 0 127 0" result="hardAlpha" />
      <feOffset dy="18.936" />
      <feGaussianBlur stdDeviation="18.936" />
      <feColorMatrix type="matrix" values="0 0 0 0 0 0 0 0 0 0 0 0 0 0 0 0 0 0 0.25 0" />
      <feBlend mode="normal" in2="BackgroundImageFix" result="effect1_dropShadow" />
      <feBlend mode="normal" in="SourceGraphic" in2="effect1_dropShadow" result="shape" />
    </filter>
    <linearGradient id="paint0_linear" x1="284.041" y1="160.956" x2="284.041" y2="284.041" gradientUnits="userSpaceOnUse">
      <stop offset="0.226012" stop-color="#FFF2DF" />
      <stop offset="0.555576" stop-color="#AFABA3" />
    </linearGradient>
  </defs>
</svg>