<svg width="569" height="713" viewBox="0 0 569 713" fill="none" xmlns="http://www.w3.org/2000/svg">
  <path d="M0.0107422 201.669L284.051 372.094V712.942L0.0107422 542.518V201.669Z" fill="#274F69" />
  <path d="M568.092 201.669L284.051 372.094V712.942L568.092 542.518V201.669Z" fill="#1E3C50" />
  <g filter="url(#filter0_d)">
    <circle cx="284.051" cy="511.273" r="94.6802" fill="#2F8F3F" />
  </g>
  <path d="M284.051 361.051L19.2648 202.179L284.051 61.8421L548.838 202.179L284.051 361.051Z" fill="#ADDEFC" stroke="#D2513D" stroke-width="18.936" />
  <path d="M119.31 181.786H448.797L471.52 215.871H96.5864L119.31 181.786Z" fill="#0D3446" />
  <rect x="142.031" width="284.041" height="215.871" fill="url(#paint0_linear)" />
  <path d="M295.723 121.758C292.674 122.421 288.565 122.686 283.66 122.686C275.31 122.686 261.126 119.637 257.282 113.937L236.339 127.723C249.064 147.208 280.081 147.738 283.528 147.738C313.882 147.738 331.247 136.736 331.247 118.311C331.247 110.226 327.933 95.7775 303.808 90.3429L323.293 79.8712V54.8189H242.702V79.8712H281.274L265.236 88.4871V113.672H283.263C288.565 113.672 292.674 113.937 295.855 114.335C295.855 114.335 301.025 115.528 301.025 118.046C301.025 120.697 295.855 121.758 295.723 121.758Z" fill="#0D3446" />
  <path d="M279.015 550.208L232.037 488.837C229.9 486.045 230.421 482.05 233.204 479.9C235.663 478 239.134 478.146 241.425 480.246L284.078 519.336L379.073 408.694C384.097 402.843 392.692 401.647 399.122 405.904C406.977 411.105 408.309 422.102 401.923 429.028L289.723 550.699C286.776 553.895 281.658 553.66 279.015 550.208Z" fill="#FFF2DF" />
  <defs>
    <filter id="filter0_d" x="151.499" y="397.657" width="265.105" height="265.105" filterUnits="userSpaceOnUse" color-interpolation-filters="sRGB">
      <feFlood flood-opacity="0" result="BackgroundImageFix" />
      <feColorMatrix in="SourceAlpha" type="matrix" values="0 0 0 0 0 0 0 0 0 0 0 0 0 0 0 0 0 0 127 0" result="hardAlpha" />
      <feOffset dy="18.936" />
      <feGaussianBlur stdDeviation="18.936" />
      <feColorMatrix type="matrix" values="0 0 0 0 0 0 0 0 0 0 0 0 0 0 0 0 0 0 0.25 0" />
      <feBlend mode="normal" in2="BackgroundImageFix" result="effect1_dropShadow" />
      <feBlend mode="normal" in="SourceGraphic" in2="effect1_dropShadow" result="shape" />
    </filter>
    <linearGradient id="paint0_linear" x1="284.051" y1="160.956" x2="284.051" y2="284.041" gradientUnits="userSpaceOnUse">
      <stop offset="0.226012" stop-color="#FFF2DF" />
      <stop offset="0.555576" stop-color="#AFABA3" />
    </linearGradient>
  </defs>
</svg>