<svg width="51" height="31" viewBox="0 0 51 31" fill="none" xmlns="http://www.w3.org/2000/svg">
<path d="M8.04071 30C3.49594 30 1 27.4096 1 22.8703V20.6444C1 17.9325 1.82052 15.8232 3.78582 14.7297C1.89913 13.7188 1 11.8136 1 9.01911V8.12971C1 3.59041 3.49594 1 8.04071 1C12.5855 1 15.0863 3.59041 15.0863 8.12971V9.01911C15.0863 11.8136 14.143 13.7188 12.3005 14.7297C14.2658 15.8232 15.0863 17.9325 15.0863 20.6444V22.8703C15.0863 27.4096 12.5855 30 8.04071 30ZM5.50546 9.86962C5.50546 12.1393 6.56673 12.8683 8.04071 12.8683C9.51469 12.8683 10.5809 12.1393 10.5809 9.86962V8.2901C10.5809 5.73856 9.47538 5.04843 8.04071 5.04843C6.60604 5.04843 5.50546 5.73856 5.50546 8.2901V9.86962ZM8.04071 25.9516C9.47538 25.9516 10.5416 25.2614 10.5809 22.7488V20.1146C10.5809 17.8887 9.63752 16.9167 8.04071 16.9167C6.4439 16.9167 5.50546 17.8887 5.50546 20.1146V22.7488C5.50546 25.2614 6.61095 25.9516 8.04071 25.9516Z" stroke="#101010" stroke-width="0.7" stroke-miterlimit="10"/>
<path d="M42.9593 30C38.4145 30 35.9186 27.4096 35.9186 22.8703V20.6444C35.9186 17.9325 36.7342 15.8232 38.6995 14.7297C36.8177 13.7188 35.9186 11.8136 35.9186 9.01911V8.12971C35.9186 3.59041 38.4145 1 42.9593 1C47.5041 1 50 3.59041 50 8.12971V9.01911C50 11.8136 49.0616 13.7188 47.2191 14.7297C49.1844 15.8232 50 17.9325 50 20.6444V22.8703C50 27.4096 47.5041 30 42.9593 30ZM40.429 9.86962C40.429 12.1393 41.4951 12.8683 42.9691 12.8683C44.4431 12.8683 45.5093 12.1393 45.5093 9.86962V8.2901C45.5093 5.73856 44.4038 5.04843 42.9691 5.04843C41.5344 5.04843 40.429 5.73856 40.429 8.2901V9.86962ZM42.9691 25.9516C44.4038 25.9516 45.47 25.2614 45.5093 22.7488V20.1146C45.5093 17.8887 44.5659 16.9167 42.9691 16.9167C41.3723 16.9167 40.429 17.8887 40.429 20.1146V22.7488C40.429 25.2614 41.5246 25.9516 42.9593 25.9516H42.9691Z" stroke="#101010" stroke-width="0.7" stroke-miterlimit="10"/>
<path d="M25.0848 13.2717V13.6799C25.0848 14.856 24.7212 15.6239 23.9155 15.9836C24.8981 16.3578 25.2666 17.2229 25.2666 18.4136V19.3419C25.2666 21.1061 24.3282 22.0538 22.5103 22.0538H19.6557V10.6327H22.3973C24.279 10.6327 25.0848 11.4977 25.0848 13.2717ZM21.4736 12.2754V15.2983H22.1811C22.8591 15.2983 23.2718 15.0018 23.2718 14.0882V13.4418C23.2718 12.6253 22.9918 12.2656 22.3481 12.2656L21.4736 12.2754ZM21.4736 16.9313V20.4403H22.5103C23.1244 20.4403 23.4536 20.1632 23.4536 19.3127V18.3407C23.4536 17.2812 23.1048 16.9556 22.2793 16.9556L21.4736 16.9313Z" stroke="#101010" stroke-width="0.7" stroke-miterlimit="10"/>
<path d="M27.8068 18.2727L25.5123 10.6327H27.4137L28.7993 15.8426L30.1848 10.6327H31.9192L29.6198 18.2727V22.0635H27.8019L27.8068 18.2727Z" stroke="#101010" stroke-width="0.7" stroke-miterlimit="10"/>
</svg>
