<svg width="153" height="139" viewBox="0 0 153 139" fill="none" xmlns="http://www.w3.org/2000/svg">
<g clip-path="url(#clip0)">
<path d="M14.7887 126.812V131.028C14.7887 136.103 12.2627 139 7.39434 139C2.52602 139 0 136.103 0 131.028V114.533C0 109.458 2.52602 106.561 7.39434 106.561C12.2627 106.561 14.7887 109.458 14.7887 114.533V117.599H10.1041V114.211C10.1041 111.942 9.10896 111.145 7.53212 111.145C5.95527 111.145 4.96018 112.003 4.96018 114.211V131.35C4.96018 133.604 5.95527 134.416 7.53212 134.416C9.10896 134.416 10.1041 133.588 10.1041 131.35V126.751L14.7887 126.812Z" fill="white"/>
<path d="M22.78 138.647H17.8198V106.914H22.78V120.512H28.4138V106.914H33.4658V138.647H28.4138V125.049H22.78V138.647Z" fill="white"/>
<path d="M53.1383 138.647H48.1322L47.2749 132.883H41.1512L40.2939 138.647H35.7012L40.7532 106.914H48.0251L53.1383 138.647ZM41.8095 128.575H46.6013L44.1978 112.54L41.8095 128.575Z" fill="white"/>
<path d="M55.4346 106.914H60.3947V134.11H68.5545V138.709H55.4346V106.914Z" fill="white"/>
<path d="M70.7285 106.914H75.6887V134.11H83.8485V138.709H70.7285V106.914Z" fill="white"/>
<path d="M90.9826 120.282H97.7952V124.881H90.9826V134.171H99.5099V138.77H86.0225V106.914H99.5099V111.513H90.9367L90.9826 120.282Z" fill="white"/>
<path d="M107.042 115.667V138.663H102.572V106.914H108.803L113.901 125.908V106.914H118.31V138.647H113.288L107.042 115.667Z" fill="white"/>
<path d="M129.317 120.972H136.252V131.028C136.252 136.103 133.726 139 128.857 139C123.989 139 121.463 136.103 121.463 131.028V114.533C121.463 109.458 123.989 106.561 128.857 106.561C133.726 106.561 136.252 109.458 136.252 114.533V117.599H131.659V114.211C131.659 111.942 130.664 111.145 129.087 111.145C127.51 111.145 126.515 112.003 126.515 114.211V131.35C126.515 133.604 127.51 134.416 129.087 134.416C130.664 134.416 131.659 133.588 131.659 131.35V125.494H129.317V120.972Z" fill="white"/>
<path d="M144.427 120.282H151.24V124.881H144.427V134.171H153V138.77H139.467V106.914H153V111.513H144.427V120.282Z" fill="white"/>
<path d="M22.2594 91.476C8.09836 91.476 0.321289 83.3049 0.321289 68.9864V61.9651C0.321289 53.4108 2.86261 46.7575 8.98629 43.3081C3.06163 40.1194 0.321289 34.11 0.321289 25.295V22.4896C0.321289 8.17106 8.09836 0 22.2594 0C36.4203 0 44.1974 8.17106 44.1974 22.4896V25.295C44.1974 34.11 41.2734 40.1194 35.5324 43.3081C41.6561 46.7575 44.1974 53.4108 44.1974 61.9651V68.9864C44.1974 83.3049 36.4203 91.476 22.2594 91.476ZM14.3598 27.9778C14.3598 35.1371 17.6666 37.4366 22.2594 37.4366C26.8521 37.4366 30.1742 35.1371 30.1742 27.9778V22.9955C30.1742 14.9471 26.7296 12.7702 22.2594 12.7702C17.7891 12.7702 14.3598 14.9471 14.3598 22.9955V27.9778ZM22.2594 78.7059C26.7296 78.7059 30.0517 76.5289 30.1742 68.6032V60.2941C30.1742 53.2729 27.2348 50.2068 22.2594 50.2068C17.2839 50.2068 14.3598 53.2729 14.3598 60.2941V68.6032C14.3598 76.5289 17.7891 78.7059 22.2594 78.7059Z" fill="white"/>
<path d="M131.062 91.476C116.901 91.476 109.124 83.3049 109.124 68.9864V61.9651C109.124 53.4108 111.665 46.7575 117.789 43.3081C111.926 40.1194 109.124 34.11 109.124 25.295V22.4896C109.124 8.17106 116.901 0 131.062 0C145.223 0 153 8.17106 153 22.4896V25.295C153 34.11 150.061 40.1194 144.335 43.3081C150.459 46.7575 153 53.4108 153 61.9651V68.9864C153 83.3049 145.223 91.476 131.062 91.476ZM123.147 27.9778C123.147 35.1371 126.469 37.4366 131.062 37.4366C135.655 37.4366 138.962 35.1371 138.962 27.9778V22.9955C138.962 14.9471 135.517 12.7702 131.062 12.7702C126.607 12.7702 123.147 14.9471 123.147 22.9955V27.9778ZM131.062 78.7059C135.517 78.7059 138.839 76.5289 138.962 68.6032V60.2941C138.962 53.2729 136.038 50.2068 131.062 50.2068C126.087 50.2068 123.147 53.2729 123.147 60.2941V68.6032C123.147 76.5289 126.592 78.7059 131.062 78.7059Z" fill="white"/>
<path d="M75.3668 38.6785V39.9662C75.3668 43.6762 74.234 46.0983 71.7233 47.2328C74.7851 48.4132 75.9333 51.142 75.9333 54.8979V57.826C75.9333 63.3909 73.0092 66.3803 67.3448 66.3803H58.4502V30.3848H66.9927C72.8408 30.3848 75.3668 33.1136 75.3668 38.6785ZM64.0993 35.5358V45.0712H66.3191C68.4318 45.0712 69.7178 44.1361 69.7178 41.254V39.2457C69.7178 36.6702 68.8298 35.5358 66.8243 35.5358H64.0993ZM64.0993 50.2222V61.3213H67.3601C69.2585 61.3213 70.2995 60.4475 70.2995 57.7647V54.6986C70.2995 51.3566 69.2126 50.3295 66.6406 50.3295L64.0993 50.2222Z" fill="white"/>
<path d="M83.8486 54.484L76.6992 30.3848H82.6698L87.0023 46.8189L91.3195 30.3848H96.7083L89.4977 54.484V66.4417H83.8486V54.484Z" fill="white"/>
</g>
<defs>
<clipPath id="clip0">
<rect width="153" height="139" fill="white"/>
</clipPath>
</defs>
</svg>
