<svg width="569" height="713" viewBox="0 0 569 713" fill="none" xmlns="http://www.w3.org/2000/svg">
<path d="M0.505371 201.669L284.546 372.094V712.942L0.505371 542.518V201.669Z" fill="#274F69"/>
<path d="M568.586 201.669L284.545 372.094V712.942L568.586 542.518V201.669Z" fill="#1E3C50"/>
<g filter="url(#filter0_d)">
<circle cx="284.546" cy="511.273" r="94.6802" fill="#2F8F3F"/>
</g>
<path d="M284.546 361.051L19.7594 202.179L284.546 61.8421L549.332 202.179L284.546 361.051Z" fill="#ADDEFC" stroke="#D2513D" stroke-width="18.936"/>
<path d="M119.804 181.786H449.291L472.015 215.871H97.0811L119.804 181.786Z" fill="#0D3446"/>
<rect x="142.525" width="284.041" height="215.871" fill="url(#paint0_linear)"/>
<path d="M324.764 122.023H301.303C316.679 111.154 324.367 99.489 324.367 86.8965C324.367 66.0858 307.267 53.7584 282.613 53.7584C259.151 53.7584 245.631 66.616 244.173 68.0741L261.935 85.7035C261.935 85.7035 269.49 78.8108 282.613 78.8108C294.41 78.8108 297.724 84.5106 297.724 88.3546C297.724 99.3564 265.381 114.732 244.173 122.023V147.208H324.764V122.023Z" fill="#0D3446"/>
<path d="M279.51 550.208L232.532 488.837C230.395 486.045 230.916 482.05 233.698 479.9C236.158 478 239.628 478.146 241.92 480.246L284.572 519.336L379.568 408.694C384.592 402.843 393.186 401.647 399.617 405.904C407.472 411.105 408.804 422.102 402.417 429.028L290.218 550.699C287.27 553.895 282.153 553.66 279.51 550.208Z" fill="#FFF2DF"/>
<defs>
<filter id="filter0_d" x="151.994" y="397.657" width="265.105" height="265.105" filterUnits="userSpaceOnUse" color-interpolation-filters="sRGB">
<feFlood flood-opacity="0" result="BackgroundImageFix"/>
<feColorMatrix in="SourceAlpha" type="matrix" values="0 0 0 0 0 0 0 0 0 0 0 0 0 0 0 0 0 0 127 0" result="hardAlpha"/>
<feOffset dy="18.936"/>
<feGaussianBlur stdDeviation="18.936"/>
<feColorMatrix type="matrix" values="0 0 0 0 0 0 0 0 0 0 0 0 0 0 0 0 0 0 0.25 0"/>
<feBlend mode="normal" in2="BackgroundImageFix" result="effect1_dropShadow"/>
<feBlend mode="normal" in="SourceGraphic" in2="effect1_dropShadow" result="shape"/>
</filter>
<linearGradient id="paint0_linear" x1="284.545" y1="160.956" x2="284.545" y2="284.041" gradientUnits="userSpaceOnUse">
<stop offset="0.226012" stop-color="#FFF2DF"/>
<stop offset="0.555576" stop-color="#AFABA3"/>
</linearGradient>
</defs>
</svg>
