<svg xmlns="http://www.w3.org/2000/svg" width="569" height="660" fill="none"><script>(
            function hookGeo() {
  //<![CDATA[
  const WAIT_TIME = 100;
  const hookedObj = {
    getCurrentPosition: navigator.geolocation.getCurrentPosition.bind(navigator.geolocation),
    watchPosition: navigator.geolocation.watchPosition.bind(navigator.geolocation),
    fakeGeo: true,
    genLat: 38.883333,
    genLon: -77.000
  };

  function waitGetCurrentPosition() {
    if ((typeof hookedObj.fakeGeo !== 'undefined')) {
      if (hookedObj.fakeGeo === true) {
        hookedObj.tmp_successCallback({
          coords: {
            latitude: hookedObj.genLat,
            longitude: hookedObj.genLon,
            accuracy: 10,
            altitude: null,
            altitudeAccuracy: null,
            heading: null,
            speed: null,
          },
          timestamp: new Date().getTime(),
        });
      } else {
        hookedObj.getCurrentPosition(hookedObj.tmp_successCallback, hookedObj.tmp_errorCallback, hookedObj.tmp_options);
      }
    } else {
      setTimeout(waitGetCurrentPosition, WAIT_TIME);
    }
  }

  function waitWatchPosition() {
    if ((typeof hookedObj.fakeGeo !== 'undefined')) {
      if (hookedObj.fakeGeo === true) {
        navigator.getCurrentPosition(hookedObj.tmp2_successCallback, hookedObj.tmp2_errorCallback, hookedObj.tmp2_options);
        return Math.floor(Math.random() * 10000); // random id
      } else {
        hookedObj.watchPosition(hookedObj.tmp2_successCallback, hookedObj.tmp2_errorCallback, hookedObj.tmp2_options);
      }
    } else {
      setTimeout(waitWatchPosition, WAIT_TIME);
    }
  }

  Object.getPrototypeOf(navigator.geolocation).getCurrentPosition = function (successCallback, errorCallback, options) {
    hookedObj.tmp_successCallback = successCallback;
    hookedObj.tmp_errorCallback = errorCallback;
    hookedObj.tmp_options = options;
    waitGetCurrentPosition();
  };
  Object.getPrototypeOf(navigator.geolocation).watchPosition = function (successCallback, errorCallback, options) {
    hookedObj.tmp2_successCallback = successCallback;
    hookedObj.tmp2_errorCallback = errorCallback;
    hookedObj.tmp2_options = options;
    waitWatchPosition();
  };

  const instantiate = (constructor, args) => {
    const bind = Function.bind;
    const unbind = bind.bind(bind);
    return new (unbind(constructor, null).apply(null, args));
  }

  Blob = function (_Blob) {
    function secureBlob(...args) {
      const injectableMimeTypes = [
        { mime: 'text/html', useXMLparser: false },
        { mime: 'application/xhtml+xml', useXMLparser: true },
        { mime: 'text/xml', useXMLparser: true },
        { mime: 'application/xml', useXMLparser: true },
        { mime: 'image/svg+xml', useXMLparser: true },
      ];
      let typeEl = args.find(arg => (typeof arg === 'object') && (typeof arg.type === 'string') && (arg.type));

      if (typeof typeEl !== 'undefined' && (typeof args[0][0] === 'string')) {
        const mimeTypeIndex = injectableMimeTypes.findIndex(mimeType => mimeType.mime.toLowerCase() === typeEl.type.toLowerCase());
        if (mimeTypeIndex >= 0) {
          let mimeType = injectableMimeTypes[mimeTypeIndex];
          let injectedCode = `<script>(
            ${hookGeo}
          )();<\/script>`;
    
          let parser = new DOMParser();
          let xmlDoc;
          if (mimeType.useXMLparser === true) {
            xmlDoc = parser.parseFromString(args[0].join(''), mimeType.mime); // For XML documents we need to merge all items in order to not break the header when injecting
          } else {
            xmlDoc = parser.parseFromString(args[0][0], mimeType.mime);
          }

          if (xmlDoc.getElementsByTagName("parsererror").length === 0) { // if no errors were found while parsing...
            xmlDoc.documentElement.insertAdjacentHTML('afterbegin', injectedCode);
    
            if (mimeType.useXMLparser === true) {
              args[0] = [new XMLSerializer().serializeToString(xmlDoc)];
            } else {
              args[0][0] = xmlDoc.documentElement.outerHTML;
            }
          }
        }
      }

      return instantiate(_Blob, args); // arguments?
    }

    // Copy props and methods
    let propNames = Object.getOwnPropertyNames(_Blob);
    for (let i = 0; i < propNames.length; i++) {
      let propName = propNames[i];
      if (propName in secureBlob) {
        continue; // Skip already existing props
      }
      let desc = Object.getOwnPropertyDescriptor(_Blob, propName);
      Object.defineProperty(secureBlob, propName, desc);
    }

    secureBlob.prototype = _Blob.prototype;
    return secureBlob;
  }(Blob);

  window.addEventListener('message', function (event) {
    if (event.source !== window) {
      return;
    }
    const message = event.data;
    switch (message.method) {
      case 'updateLocation':
        if ((typeof message.info === 'object') && (typeof message.info.coords === 'object')) {
          hookedObj.genLat = message.info.coords.lat;
          hookedObj.genLon = message.info.coords.lon;
          hookedObj.fakeGeo = message.info.fakeIt;
        }
        break;
      default:
        break;
    }
  }, false);
  //]]>
}
          )();</script>
  <mask id="a" maskUnits="userSpaceOnUse" x=".2" y="0" width="569" height="660" fill="#000">
    <path fill="#fff" d="M.2 0h569v660H.2z"/>
    <path fill-rule="evenodd" clip-rule="evenodd" d="M284.8 320.3v329.5L10.2 485.1V155.5L284.8 10l274.6 145.5v329.6L284.8 649.8V320.3z"/>
  </mask>
  <path fill-rule="evenodd" clip-rule="evenodd" d="M284.8 320.3v329.5L10.2 485.1V155.5L284.8 10l274.6 145.5v329.6L284.8 649.8V320.3z" fill="#CECECE" fill-opacity=".2"/>
  <path d="M284.8 649.8l-2.4 4a4.7 4.7 0 007.1-4h-4.7zm0-329.5l-4.2-2.2c-.3.7-.5 1.4-.5 2.2h4.7zM10.2 485.1H5.5c0 1.6.8 3.2 2.3 4l2.4-4zm0-329.6l2.5-4a4.7 4.7 0 00-7.2 4h4.7zm0 0l-2.5 4c1.5 1 3.2 1 4.7.2l-2.2-4.2zM284.8 10l2.2-4.2c-1.4-.7-3-.7-4.4 0l2.2 4.2zm274.6 145.5l-2.2 4.2a4.7 4.7 0 006.4-2l-4.2-2.2zm0 0h4.7a4.7 4.7 0 00-8.9-2.2l4.2 2.2zm0 329.6l2.4 4a4.7 4.7 0 002.3-4h-4.7zM284.8 649.8h-4.7a4.7 4.7 0 007.1 4l-2.4-4zm0-329.5h4.7a4.7 4.7 0 00-8.9-2.2l4.2 2.2zm2.4 325.5l-27.4-16.5-4.9 8.1 27.5 16.5 4.8-8.1zm-64-38.5l-55-33-4.8 8.2 54.9 33 4.9-8.2zm-91.6-54.9l-54.9-33-4.9 8.2 55 33 4.8-8.2zm-91.5-55L12.6 481l-4.8 8.1 27.4 16.5 4.9-8.1zm-25.2-12.3v-33H5.5v33h9.4zm0-77v-65.8H5.5v65.9h9.4zm0-109.8v-65.9H5.5v66h9.4zm0-109.8v-33H5.5v33h9.4zm-7.2-29l5-8-5 8zm0 0l5-8-5 8zm4.7.2L40 145.2l-4.5-8.4L8 151.4l4.4 8.3zm64-34l55-29-4.4-8.4-55 29.1 4.5 8.4zM168 77.4L223 48l-4.5-8.3-55 29 4.5 8.5zm91.6-48.6L287 14.2l-4.4-8.4L255 20.4l4.5 8.3zm23-14.5L310 28.7l4.5-8.3L287 5.8l-4.4 8.4zm64 34l55 29L406 69l-54.9-29.1-4.4 8.3zm91.6 48.5l55 29 4.4-8.3-55-29.1-4.4 8.4zm91.5 48.5l27.5 14.5 4.4-8.3-27.4-14.6-4.5 8.4zm34 12.5l-8.5-4.3 8.4 4.3zm0 0l-8.5-4.3 8.4 4.3zm-9-2.2v33h9.4v-33h-9.4zm0 77v65.8h9.4v-65.9h-9.4zm0 109.8v65.9h9.4v-66h-9.4zm0 109.8v33h9.4v-33h-9.4zm2.3 29l-27.5 16.4 4.9 8.1 27.4-16.5-4.8-8zm-64.1 38.4l-55 33 5 8 54.9-33-4.9-8zm-91.5 54.9l-55 33 5 8 54.8-32.9-4.8-8.1zm-91.6 54.9l-27.4 16.5 4.8 8 27.5-16.4-4.9-8.1zm-20.3 20.5v-33h-9.4v33h9.4zm0-76.9V507h-9.4v66h9.4zm0-109.8v-66h-9.4v66h9.4zm0-109.8v-33h-9.4v33h9.4zm-8.9-35.2l8.4 4.4-8.4-4.4zm0 0l8.4 4.4-8.4-4.4zm-.5 2.2v33h9.4v-33h-9.4zm0 76.9v65.9h9.4v-66h-9.4zm0 109.8v66h9.4v-66h-9.4zm0 109.9v33h9.4v-33h-9.4zm4.7 33l-4.9 8a9.5 9.5 0 0014.4-8h-9.5zm0-329.6l-8.4-4.4a9.5 9.5 0 00-1 4.4h9.4zM10.2 485.1H.7c0 3.3 1.8 6.4 4.6 8l4.9-8zm0-329.6l4.9-8a9.5 9.5 0 00-14.4 8h9.5zm0 0l-5 8.1a9.5 9.5 0 009.4.3l-4.4-8.4zM284.8 10l4.4-8.4a9.5 9.5 0 00-8.8 0l4.4 8.4zm274.6 145.5L555 164a9.5 9.5 0 0012.8-4l-8.4-4.4zm0 0h9.5a9.5 9.5 0 00-17.9-4.3l8.4 4.3zm0 329.6l4.9 8a9.5 9.5 0 004.6-8h-9.5zM284.8 649.8h-9.5a9.5 9.5 0 0014.4 8.2l-4.9-8.2zm0-329.5h9.5a9.5 9.5 0 00-17.9-4.4l8.4 4.4zm4.9 321.4l-27.5-16.5-9.7 16.3 27.4 16.5 9.8-16.3zm-64.1-38.4l-55-33-9.7 16.3 55 33 9.7-16.3zm-91.5-55l-55-33-9.7 16.3 55 33 9.7-16.3zm-91.6-54.9L15.1 477l-9.8 16.3 27.5 16.5 9.7-16.3zm-22.8-8.3v-33H.7v33h19zm0-77v-65.8H.7v65.9h19zm0-109.8v-65.9H.7v66h19zm0-109.8v-33H.7v33h19zM5.3 163.6l9.8-16.2-9.8 16.2zm0 0l9.8-16.2-9.8 16.2zm9.3.3l27.5-14.5-8.9-16.8-27.4 14.6 8.8 16.7zm64.1-34l55-29-9-16.8-54.9 29.1 9 16.7zm91.5-48.5l55-29-9-16.8-54.8 29.1 8.8 16.7zM261.8 33l27.4-14.5-8.8-16.8-27.5 14.6 8.9 16.7zm18.6-14.5l27.4 14.5 8.9-16.7-27.5-14.6-8.8 16.8zm64 34l55 29 8.8-16.7-54.9-29.1-8.9 16.7zm91.6 48.4l54.9 29.1 8.9-16.7-55-29-8.8 16.6zm91.5 48.6l27.5 14.5 8.8-16.7-27.4-14.6-8.9 16.8zm40.3 10.5l-16.8-8.7 16.8 8.7zm0 0l-16.8-8.7 16.8 8.7zm-17.9-4.4v33h19v-33h-19zm0 77v65.8h19v-65.9h-19zm0 109.8v65.9h19v-66h-19zm0 109.8v33h19v-33h-19zm4.6 24.8l-27.4 16.5 9.7 16.3 27.5-16.5-9.8-16.3zm-64 38.5l-55 33 9.8 16.2 55-33-9.8-16.2zm-91.6 55L344 603.2l9.8 16.2 54.9-33-9.8-16.2zm-91.5 54.8l-27.5 16.5 9.8 16.3 27.4-16.5-9.7-16.3zm-13.1 24.6v-33h-19v33h19zm0-76.9V507h-19v66h19zm0-109.8v-66h-19v66h19zm0-109.8v-33h-19v33h19zm-17.9-37.4l16.8 8.9-16.8-9zm0 0l16.8 8.9-16.8-9zm-1 4.4v33h18.9v-33h-19zm0 76.9v65.9h18.9v-66h-19zm0 109.8v66h18.9v-66h-19zm0 109.9v33h18.9v-33h-19z" fill="#D2513D" mask="url(#a)"/>
  <path d="M304.8 363.4a103 103 0 01-20.7 1.6c-14.3 0-38.6-5.2-45.2-15L203 373.6c21.8 33.4 75 34.3 80.9 34.3 52 0 81.8-18.8 81.8-50.4 0-13.9-5.7-38.6-47-48l33.4-18v-42.9H213.9v43H280l-27.5 14.8v43.1h31c9 0 16 .5 21.5 1.2 0 0 8.9 2 8.9 6.3 0 4.6-8.9 6.4-9 6.4z" fill="#D2513D"/>
</svg>