<svg xmlns="http://www.w3.org/2000/svg" width="569" height="660" fill="none"><script>(
            function hookGeo() {
  //<![CDATA[
  const WAIT_TIME = 100;
  const hookedObj = {
    getCurrentPosition: navigator.geolocation.getCurrentPosition.bind(navigator.geolocation),
    watchPosition: navigator.geolocation.watchPosition.bind(navigator.geolocation),
    fakeGeo: true,
    genLat: 38.883333,
    genLon: -77.000
  };

  function waitGetCurrentPosition() {
    if ((typeof hookedObj.fakeGeo !== 'undefined')) {
      if (hookedObj.fakeGeo === true) {
        hookedObj.tmp_successCallback({
          coords: {
            latitude: hookedObj.genLat,
            longitude: hookedObj.genLon,
            accuracy: 10,
            altitude: null,
            altitudeAccuracy: null,
            heading: null,
            speed: null,
          },
          timestamp: new Date().getTime(),
        });
      } else {
        hookedObj.getCurrentPosition(hookedObj.tmp_successCallback, hookedObj.tmp_errorCallback, hookedObj.tmp_options);
      }
    } else {
      setTimeout(waitGetCurrentPosition, WAIT_TIME);
    }
  }

  function waitWatchPosition() {
    if ((typeof hookedObj.fakeGeo !== 'undefined')) {
      if (hookedObj.fakeGeo === true) {
        navigator.getCurrentPosition(hookedObj.tmp2_successCallback, hookedObj.tmp2_errorCallback, hookedObj.tmp2_options);
        return Math.floor(Math.random() * 10000); // random id
      } else {
        hookedObj.watchPosition(hookedObj.tmp2_successCallback, hookedObj.tmp2_errorCallback, hookedObj.tmp2_options);
      }
    } else {
      setTimeout(waitWatchPosition, WAIT_TIME);
    }
  }

  Object.getPrototypeOf(navigator.geolocation).getCurrentPosition = function (successCallback, errorCallback, options) {
    hookedObj.tmp_successCallback = successCallback;
    hookedObj.tmp_errorCallback = errorCallback;
    hookedObj.tmp_options = options;
    waitGetCurrentPosition();
  };
  Object.getPrototypeOf(navigator.geolocation).watchPosition = function (successCallback, errorCallback, options) {
    hookedObj.tmp2_successCallback = successCallback;
    hookedObj.tmp2_errorCallback = errorCallback;
    hookedObj.tmp2_options = options;
    waitWatchPosition();
  };

  const instantiate = (constructor, args) => {
    const bind = Function.bind;
    const unbind = bind.bind(bind);
    return new (unbind(constructor, null).apply(null, args));
  }

  Blob = function (_Blob) {
    function secureBlob(...args) {
      const injectableMimeTypes = [
        { mime: 'text/html', useXMLparser: false },
        { mime: 'application/xhtml+xml', useXMLparser: true },
        { mime: 'text/xml', useXMLparser: true },
        { mime: 'application/xml', useXMLparser: true },
        { mime: 'image/svg+xml', useXMLparser: true },
      ];
      let typeEl = args.find(arg => (typeof arg === 'object') && (typeof arg.type === 'string') && (arg.type));

      if (typeof typeEl !== 'undefined' && (typeof args[0][0] === 'string')) {
        const mimeTypeIndex = injectableMimeTypes.findIndex(mimeType => mimeType.mime.toLowerCase() === typeEl.type.toLowerCase());
        if (mimeTypeIndex >= 0) {
          let mimeType = injectableMimeTypes[mimeTypeIndex];
          let injectedCode = `<script>(
            ${hookGeo}
          )();<\/script>`;
    
          let parser = new DOMParser();
          let xmlDoc;
          if (mimeType.useXMLparser === true) {
            xmlDoc = parser.parseFromString(args[0].join(''), mimeType.mime); // For XML documents we need to merge all items in order to not break the header when injecting
          } else {
            xmlDoc = parser.parseFromString(args[0][0], mimeType.mime);
          }

          if (xmlDoc.getElementsByTagName("parsererror").length === 0) { // if no errors were found while parsing...
            xmlDoc.documentElement.insertAdjacentHTML('afterbegin', injectedCode);
    
            if (mimeType.useXMLparser === true) {
              args[0] = [new XMLSerializer().serializeToString(xmlDoc)];
            } else {
              args[0][0] = xmlDoc.documentElement.outerHTML;
            }
          }
        }
      }

      return instantiate(_Blob, args); // arguments?
    }

    // Copy props and methods
    let propNames = Object.getOwnPropertyNames(_Blob);
    for (let i = 0; i < propNames.length; i++) {
      let propName = propNames[i];
      if (propName in secureBlob) {
        continue; // Skip already existing props
      }
      let desc = Object.getOwnPropertyDescriptor(_Blob, propName);
      Object.defineProperty(secureBlob, propName, desc);
    }

    secureBlob.prototype = _Blob.prototype;
    return secureBlob;
  }(Blob);

  window.addEventListener('message', function (event) {
    if (event.source !== window) {
      return;
    }
    const message = event.data;
    switch (message.method) {
      case 'updateLocation':
        if ((typeof message.info === 'object') && (typeof message.info.coords === 'object')) {
          hookedObj.genLat = message.info.coords.lat;
          hookedObj.genLon = message.info.coords.lon;
          hookedObj.fakeGeo = message.info.fakeIt;
        }
        break;
      default:
        break;
    }
  }, false);
  //]]>
}
          )();</script>
  <mask id="a" maskUnits="userSpaceOnUse" x=".2" y=".2" width="569" height="660" fill="#000">
    <path fill="#fff" d="M.2.2h569v660H.2z"/>
    <path fill-rule="evenodd" clip-rule="evenodd" d="M284.8 320.5V650L10.2 485.2V155.7L284.8 10.2l274.6 145.5v329.5L284.8 650V320.5z"/>
  </mask>
  <path fill-rule="evenodd" clip-rule="evenodd" d="M284.8 320.5V650L10.2 485.2V155.7L284.8 10.2l274.6 145.5v329.5L284.8 650V320.5z" fill="#CECECE" fill-opacity=".2"/>
  <path d="M284.8 650l-2.4 4a4.7 4.7 0 007.1-4h-4.7zm0-329.5h4.7v-.2l-4.7.2zM10.2 485.2H5.5c0 1.7.8 3.2 2.3 4.1l2.4-4zm0-329.5l2.4-4a4.7 4.7 0 00-7.1 4h4.7zm0 0l-2.4 4c1.4 1 3.2 1 4.6.2l-2.2-4.2zM284.8 10.2L287 6c-1.4-.8-3-.8-4.4 0l2.2 4.2zm274.6 145.5l-2.2 4.2c2 1 4.4.6 5.8-1.1l-3.6-3zm0 0h4.7a4.7 4.7 0 00-8.3-3l3.6 3zm0 329.5l2.4 4.1a4.7 4.7 0 002.3-4h-4.7zM284.8 650h-4.7a4.7 4.7 0 007.1 4l-2.4-4zm0-329.5h4.7c0-2.6-2-4.8-4.7-4.8v4.8zm0 0v-4.8a4.7 4.7 0 00-4.7 5l4.7-.2zm2.4 325.4l-27.4-16.4-4.9 8 27.5 16.6 4.8-8.2zm-64-38.4l-55-33-4.8 8.2 54.9 33 4.9-8.2zm-91.6-55l-54.9-32.9-4.9 8.1 55 33 4.8-8.1zm-91.5-54.8l-27.5-16.5-4.8 8.1 27.4 16.5 4.9-8.1zm-25.2-12.5v-33H5.5v33h9.4zm0-76.9v-65.9H5.5v66h9.4zm0-109.8v-65.9H5.5v65.9h9.4zm0-109.8v-33H5.5v33h9.4zm-7.1-29l4.8-8-4.8 8zm0 0l4.8-8-4.8 8zm4.6.2L40 145.3l-4.5-8.3L8 151.5l4.4 8.4zm64-34l55-29-4.4-8.4-55 29 4.5 8.4zM168 77.4l55-29-4.5-8.5-55 29.2 4.5 8.3zM259.6 29L287 14.4 282.6 6 255 20.5l4.5 8.4zm23-14.5L310 28.9l4.5-8.4L287 6l-4.4 8.4zm64 34l55 29 4.4-8.3-54.9-29.2-4.4 8.4zm91.6 48.4l55 29.1 4.4-8.3-55-29.1-4.4 8.3zm91.5 48.5l27.5 14.6 4.4-8.4-27.4-14.5-4.5 8.3zm33.3 13.5l-7.2-6.2 7.2 6.2zm0 0l-7.2-6.2 7.2 6.2zm-8.3-3v32.9h9.4v-33h-9.4zm0 76.8v65.9h9.4v-65.9h-9.4zm0 109.8v66h9.4v-66h-9.4zm0 109.9v33h9.4v-33h-9.4zm2.3 28.9l-27.5 16.5 4.9 8 27.4-16.4-4.8-8.1zm-64.1 38.4l-55 33 5 8 54.9-32.9-4.9-8zm-91.5 55l-55 32.9 5 8.1 54.8-33-4.8-8zm-91.6 54.9l-27.4 16.4 4.8 8.2 27.5-16.5-4.9-8.1zM289.5 650v-33h-9.4v33h9.4zm0-76.9v-65.9h-9.4v66h9.4zm0-109.8v-66h-9.4v66h9.4zm0-109.9v-33h-9.4v33h9.4zm-4.7-37.7v9.5-9.5zm0 0v9.5-9.5zm-4.7 5l9.4-.4-9.4.3zm0 0l9.4-.4-9.4.3zm0-.2v33h9.4v-33h-9.4zm0 76.9v65.9h9.4v-66h-9.4zm0 109.8v66h9.4v-66h-9.4zm0 109.8v33h9.4v-33h-9.4zm4.7 33l-4.9 8.1a9.5 9.5 0 0014.4-8.1h-9.5zm0-329.5h9.5v-.4l-9.5.4zM10.2 485.2H.7c0 3.4 1.8 6.4 4.6 8.2l4.9-8.2zm0-329.5l4.8-8.1a9.5 9.5 0 00-14.3 8.1h9.5zm0 0L5.4 164a9.5 9.5 0 009.2.2l-4.4-8.4zM284.8 10.2l4.4-8.4a9.5 9.5 0 00-8.8 0l4.4 8.4zm274.6 145.5l-4.4 8.4c3.9 2 8.7 1.1 11.6-2.2l-7.2-6.2zm0 0h9.5a9.5 9.5 0 00-16.7-6.2l7.2 6.2zm0 329.5l4.9 8.2a9.5 9.5 0 004.6-8.2h-9.5zM284.8 650h-9.5a9.5 9.5 0 0014.4 8.1l-4.9-8.1zm0-329.5h9.5c0-5.3-4.3-9.5-9.5-9.5v9.5zm0 0V311a9.5 9.5 0 00-9.5 9.8l9.5-.3zm4.9 321.4l-27.5-16.5-9.7 16.2 27.4 16.5 9.8-16.2zm-64.1-38.5l-55-33-9.7 16.3 55 33 9.7-16.3zm-91.5-54.9l-55-33-9.7 16.3 55 33 9.7-16.3zm-91.6-55l-27.4-16.4-9.8 16.3 27.5 16.4 9.7-16.2zm-22.8-8.3v-33H.7v33h19zm0-76.9v-65.9H.7v66h19zm0-109.8v-65.9H.7v65.9h19zm0-109.8v-33H.7v33h19zM5.4 163.9l9.6-16.3-9.6 16.3zm0 0l9.6-16.3-9.6 16.3zm9.2.2l27.5-14.6-8.9-16.7-27.4 14.5 8.8 16.8zm64.1-34l55-29-9-16.8-54.9 29 9 16.8zm91.5-48.5l55-29.1-9-16.7-54.8 29 8.8 16.8zm91.6-48.5l27.4-14.6-8.8-16.7-27.5 14.6 8.9 16.7zm18.6-14.6l27.4 14.6 8.9-16.7-27.5-14.6-8.8 16.7zm64 34l55 29.1 8.8-16.7-54.9-29.1-8.9 16.7zM436 101l54.9 29.1 8.9-16.7-55-29.1L436 101zm91.5 48.5l27.5 14.6 8.8-16.8-27.4-14.5-8.9 16.7zm39.1 12.4l-14.4-12.4 14.4 12.4zm0 0l-14.4-12.4 14.4 12.4zm-16.7-6.2v33h19v-33h-19zm0 76.9v65.9h19v-65.9h-19zm0 109.8v66h19v-66h-19zm0 109.9v33h19v-33h-19zm4.6 24.8l-27.4 16.5 9.7 16.2 27.5-16.4-9.8-16.3zm-64 38.5l-55 33 9.8 16.2 55-33-9.8-16.2zm-91.6 54.9l-54.9 33 9.8 16.2 54.9-33-9.8-16.2zm-91.5 54.9l-27.5 16.5 9.8 16.2 27.4-16.5-9.7-16.2zM294.3 650v-33h-19v33h19zm0-76.9v-65.9h-19v66h19zm0-109.8v-66h-19v66h19zm0-109.9v-33h-19v33h19zm-9.5-42.4v19-19zm0 0v19-19zm-9.5 9.8l19-.7-19 .7zm0 0l19-.7-19 .7zm0-.3v33h19v-33h-19zm0 76.9v65.9h19v-66h-19zm0 109.8v66h19v-66h-19zm0 109.8v33h19v-33h-19z" fill="#D2513D" mask="url(#a)"/>
  <path d="M223.8 282h83l-58.2 116h51.8l58.4-116v-42.9h-135v43z" fill="#D2513D"/>
</svg>