<svg width="26" height="22" viewBox="0 0 26 22" fill="none" xmlns="http://www.w3.org/2000/svg">
<path d="M10.7245 5.71704C9.04453 5.71704 8.01367 7.18613 8.01367 8.39122C8.01367 10.9968 10.9752 13.4153 13.0656 14.9549C15.156 13.4152 18.1176 10.9966 18.1176 8.39122C18.1176 7.18623 17.0867 5.71704 15.4068 5.71704C14.4686 5.71704 13.6671 6.46504 13.0657 7.17566C12.4643 6.46504 11.6627 5.71704 10.7246 5.71704H10.7245Z" fill="white"/>
<path d="M13.2489 2.88914e-05C6.21654 2.88914e-05 0.52501 4.4328 0.52501 9.85075C0.52501 11.7388 1.20909 13.5721 2.52247 15.1592C2.00252 16.117 1.31844 17.2662 0.497549 18.1692C-0.0771737 18.826 -0.159214 19.7015 0.27862 20.4677C0.634399 21.097 1.26369 21.4528 1.97508 21.4528C2.08445 21.4528 2.22131 21.4528 2.33086 21.4255C4.90304 20.9603 7.33831 19.9752 9.03482 19.1816C10.403 19.5647 11.8259 19.7288 13.2762 19.7288C20.3085 19.7288 26 15.296 26 9.87808C25.9727 4.43282 20.2537 0 13.2488 0L13.2489 2.88914e-05ZM13.2489 17.704C11.8534 17.704 10.5125 17.5123 9.22648 17.1292C8.98025 17.0472 8.73404 17.0745 8.48763 17.184C6.92783 17.9502 4.54729 18.9353 2.05729 19.4004C3.15172 18.1416 4.02744 16.5547 4.60197 15.46C4.7936 15.077 4.73882 14.6118 4.43782 14.3108C3.17902 12.9974 2.52245 11.4376 2.52245 9.85056C2.52245 5.52733 7.31099 1.99735 13.2488 1.99735C19.1866 1.99735 23.9751 5.52728 23.9751 9.85056C23.9751 14.2014 19.1591 17.7038 13.2488 17.7038L13.2489 17.704Z" fill="white"/>
</svg>
