<svg width="64" height="58" viewBox="0 0 64 58" fill="none" xmlns="http://www.w3.org/2000/svg">
<g clip-path="url(#clip0)">
<path d="M6.18611 52.9146V54.6737C6.18611 56.791 5.12948 58 3.09306 58C1.05663 58 0 56.791 0 54.6737V47.7907C0 45.6734 1.05663 44.4644 3.09306 44.4644C5.12948 44.4644 6.18611 45.6734 6.18611 47.7907V49.0701H4.22654V47.6564C4.22654 46.7096 3.81029 46.377 3.15069 46.377C2.49109 46.377 2.07484 46.7352 2.07484 47.6564V54.808C2.07484 55.7483 2.49109 56.0874 3.15069 56.0874C3.81029 56.0874 4.22654 55.742 4.22654 54.808V52.889L6.18611 52.9146Z" fill="#101010"/>
<path d="M9.52895 57.8529H7.4541V44.6115H9.52895V50.2854H11.8856V44.6115H13.9988V57.8529H11.8856V52.1789H9.52895V57.8529Z" fill="#101010"/>
<path d="M22.2276 57.8529H20.1335L19.7749 55.4477H17.2134L16.8547 57.8529H14.9336L17.0469 44.6115H20.0887L22.2276 57.8529ZM17.4887 53.6502H19.4931L18.4877 46.9591L17.4887 53.6502Z" fill="#101010"/>
<path d="M23.1885 44.6115H25.2633V55.9594H28.6766V57.8785H23.1885V44.6115Z" fill="#101010"/>
<path d="M29.5854 44.6115H31.6603V55.9594H35.0735V57.8785H29.5854V44.6115Z" fill="#101010"/>
<path d="M38.0578 50.1895H40.9075V52.1085H38.0578V55.985H41.6247V57.904H35.9829V44.6115H41.6247V46.5305H38.0385L38.0578 50.1895Z" fill="#101010"/>
<path d="M44.7757 48.264V57.8593H42.9058V44.6115H45.5121L47.6446 52.5371V44.6115H49.4889V57.8529H47.3884L44.7757 48.264Z" fill="#101010"/>
<path d="M54.0933 50.4774H56.9942V54.6737C56.9942 56.791 55.9376 58 53.9012 58C51.8647 58 50.8081 56.791 50.8081 54.6737V47.7907C50.8081 45.6734 51.8647 44.4644 53.9012 44.4644C55.9376 44.4644 56.9942 45.6734 56.9942 47.7907V49.0701H55.0731V47.6564C55.0731 46.7096 54.6568 46.377 53.9972 46.377C53.3376 46.377 52.9214 46.7352 52.9214 47.6564V54.808C52.9214 55.7483 53.3376 56.0874 53.9972 56.0874C54.6568 56.0874 55.0731 55.742 55.0731 54.808V52.3644H54.0933V50.4774Z" fill="#101010"/>
<path d="M60.4137 50.1895H63.2634V52.1085H60.4137V55.985H63.9999V57.904H58.3389V44.6115H63.9999V46.5305H60.4137V50.1895Z" fill="#101010"/>
<path d="M9.31098 38.1698C3.38743 38.1698 0.134277 34.7603 0.134277 28.7857V25.856C0.134277 22.2865 1.19731 19.5103 3.75885 18.071C1.28057 16.7405 0.134277 14.2329 0.134277 10.5548V9.38414C0.134277 3.40951 3.38743 0 9.31098 0C15.2345 0 18.4877 3.40951 18.4877 9.38414V10.5548C18.4877 14.2329 17.2646 16.7405 14.8631 18.071C17.4247 19.5103 18.4877 22.2865 18.4877 25.856V28.7857C18.4877 34.7603 15.2345 38.1698 9.31098 38.1698ZM6.0066 11.6742C6.0066 14.6615 7.38983 15.621 9.31098 15.621C11.2321 15.621 12.6218 14.6615 12.6218 11.6742V9.59523C12.6218 6.2369 11.1809 5.32855 9.31098 5.32855C7.44106 5.32855 6.0066 6.2369 6.0066 9.59523V11.6742ZM9.31098 32.8413C11.1809 32.8413 12.5705 31.9329 12.6218 28.6258V25.1587C12.6218 22.229 11.3922 20.9496 9.31098 20.9496C7.22973 20.9496 6.0066 22.229 6.0066 25.1587V28.6258C6.0066 31.9329 7.44106 32.8413 9.31098 32.8413Z" fill="#101010"/>
<path d="M54.8232 38.1698C48.8996 38.1698 45.6465 34.7603 45.6465 28.7857V25.856C45.6465 22.2865 46.7095 19.5103 49.2711 18.071C46.8184 16.7405 45.6465 14.2329 45.6465 10.5548V9.38414C45.6465 3.40951 48.8996 0 54.8232 0C60.7467 0 63.9999 3.40951 63.9999 9.38414V10.5548C63.9999 14.2329 62.7704 16.7405 60.3753 18.071C62.9369 19.5103 63.9999 22.2865 63.9999 25.856V28.7857C63.9999 34.7603 60.7467 38.1698 54.8232 38.1698ZM51.5124 11.6742C51.5124 14.6615 52.902 15.621 54.8232 15.621C56.7443 15.621 58.1276 14.6615 58.1276 11.6742V9.59523C58.1276 6.2369 56.6867 5.32855 54.8232 5.32855C52.9597 5.32855 51.5124 6.2369 51.5124 9.59523V11.6742ZM54.8232 32.8413C56.6867 32.8413 58.0763 31.9329 58.1276 28.6258V25.1587C58.1276 22.229 56.9044 20.9496 54.8232 20.9496C52.7419 20.9496 51.5124 22.229 51.5124 25.1587V28.6258C51.5124 31.9329 52.9533 32.8413 54.8232 32.8413Z" fill="#101010"/>
<path d="M31.5264 16.1393V16.6766C31.5264 18.2246 31.0526 19.2353 30.0023 19.7087C31.2831 20.2013 31.7634 21.3399 31.7634 22.9071V24.1289C31.7634 26.451 30.5403 27.6983 28.1708 27.6983H24.4502V12.6786H28.0235C30.4698 12.6786 31.5264 13.8172 31.5264 16.1393ZM26.8132 14.8279V18.8067H27.7418C28.6255 18.8067 29.1634 18.4165 29.1634 17.2139V16.376C29.1634 15.3013 28.792 14.8279 27.9531 14.8279H26.8132ZM26.8132 20.9561V25.5874H28.1772C28.9713 25.5874 29.4068 25.2228 29.4068 24.1033V22.824C29.4068 21.4294 28.9521 21.0009 27.8763 21.0009L26.8132 20.9561Z" fill="#101010"/>
<path d="M35.0736 22.7344L32.083 12.6786H34.5805L36.3928 19.536L38.1987 12.6786H40.4528L37.4366 22.7344V27.7239H35.0736V22.7344Z" fill="#101010"/>
</g>
<defs>
<clipPath id="clip0">
<rect width="64" height="58" fill="white"/>
</clipPath>
</defs>
</svg>
