<svg width="24" height="18" viewBox="0 0 24 18" fill="none" xmlns="http://www.w3.org/2000/svg">
<path d="M19.418 15.7627L21.1494 8.74023C22.4414 8.74023 23.5312 7.65918 23.5312 6.31445C23.5312 4.9873 22.4414 3.89746 21.1055 3.89746C19.7695 3.89746 18.6885 4.9873 18.6885 6.31445C18.6885 6.58691 18.7324 6.8418 18.8115 7.0791L16.7197 8.37109C16.4473 8.53809 16.2803 8.49414 16.1309 8.2832L13.3975 4.60059C14.0127 4.16113 14.417 3.44043 14.417 2.62305C14.417 1.2959 13.3271 0.206055 12 0.206055C10.6553 0.206055 9.57422 1.28711 9.57422 2.62305C9.57422 3.44043 9.97852 4.16113 10.6025 4.60059L7.86035 8.29199C7.71973 8.48535 7.56152 8.5293 7.30664 8.37109L5.18848 7.06152C5.25879 6.82422 5.30273 6.57812 5.30273 6.31445C5.30273 4.9873 4.22168 3.89746 2.88574 3.89746C1.54102 3.89746 0.459961 4.9873 0.459961 6.31445C0.459961 7.6416 1.53223 8.72266 2.85059 8.74023L4.57324 15.7627C4.93359 17.2217 5.72461 17.9512 7.23633 17.9512H16.7637C18.2754 17.9512 19.0664 17.2217 19.418 15.7627ZM12 3.50195C11.5166 3.50195 11.1211 3.10645 11.1211 2.62305C11.1211 2.13086 11.5166 1.75293 12 1.75293C12.4746 1.75293 12.8701 2.14844 12.8701 2.62305C12.8701 3.10645 12.4834 3.50195 12 3.50195ZM6.71777 9.88281C7.4209 10.2959 8.41406 10.252 9.0293 9.42578L12 5.42676L14.9971 9.45215C15.5947 10.2695 16.5791 10.3135 17.2383 9.91797L19.5234 8.53809L18.4248 13.0293H5.56641L4.46777 8.51172L6.71777 9.88281ZM2.88574 7.19336C2.40234 7.19336 2.00684 6.79785 2.00684 6.31445C2.00684 5.83105 2.40234 5.44434 2.88574 5.44434C3.36035 5.44434 3.75586 5.83984 3.75586 6.31445C3.75586 6.79785 3.36914 7.19336 2.88574 7.19336ZM21.1055 7.19336C20.6133 7.19336 20.2354 6.79785 20.2354 6.31445C20.2354 5.83984 20.6309 5.44434 21.1055 5.44434C21.5889 5.44434 21.9844 5.83105 21.9844 6.31445C21.9844 6.79785 21.5889 7.19336 21.1055 7.19336ZM7.21875 16.334C6.64746 16.334 6.30469 16.0703 6.18164 15.5342L5.96191 14.6553H18.0293L17.8184 15.5342C17.6865 16.0703 17.3525 16.334 16.7725 16.334H7.21875Z" fill="white"/>
</svg>
