<svg width="100" height="91" viewBox="0 0 100 91" fill="none" xmlns="http://www.w3.org/2000/svg">
<g clip-path="url(#clip0_18_376)">
<path d="M9.66 82.72V85.47C9.66 88.78 8.01 90.67 4.83 90.67C1.65 90.67 0 88.78 0 85.47V74.71C0 71.4 1.65 69.51 4.83 69.51C8.01 69.51 9.66 71.4 9.66 74.71V76.71H6.6V74.5C6.6 73.02 5.95 72.5 4.92 72.5C3.89 72.5 3.24 73.06 3.24 74.5V85.68C3.24 87.15 3.89 87.68 4.92 87.68C5.95 87.68 6.6 87.14 6.6 85.68V82.68L9.66 82.72Z" fill="#101010"/>
<path d="M14.8801 90.44H11.6401V69.74H14.8801V78.61H18.5601V69.74H21.8601V90.44H18.5601V81.57H14.8801V90.44Z" fill="#101010"/>
<path d="M34.7101 90.44H31.4401L30.8801 86.68H26.8801L26.3201 90.44H23.3201L26.6201 69.74H31.3701L34.7101 90.44ZM27.3101 83.87H30.4401L28.8701 73.41L27.3101 83.87Z" fill="#101010"/>
<path d="M36.21 69.74H39.45V87.48H44.78V90.48H36.21V69.74Z" fill="#101010"/>
<path d="M46.2 69.74H49.4399V87.48H54.77V90.48H46.2V69.74Z" fill="#101010"/>
<path d="M59.4299 78.46H63.8799V81.46H59.4299V87.52H64.9999V90.52H56.1899V69.74H64.9999V72.74H59.3999L59.4299 78.46Z" fill="#101010"/>
<path d="M69.92 75.45V90.45H67V69.74H71.07L74.4 82.13V69.74H77.28V90.44H74L69.92 75.45Z" fill="#101010"/>
<path d="M84.4698 78.91H88.9998V85.47C88.9998 88.78 87.3498 90.67 84.1698 90.67C80.9898 90.67 79.3398 88.78 79.3398 85.47V74.71C79.3398 71.4 80.9898 69.51 84.1698 69.51C87.3498 69.51 88.9998 71.4 88.9998 74.71V76.71H85.9998V74.5C85.9998 73.02 85.3498 72.5 84.3198 72.5C83.2898 72.5 82.6398 73.06 82.6398 74.5V85.68C82.6398 87.15 83.2898 87.68 84.3198 87.68C85.3498 87.68 85.9998 87.14 85.9998 85.68V81.86H84.4698V78.91Z" fill="#101010"/>
<path d="M94.3401 78.46H98.7901V81.46H94.3401V87.52H99.9401V90.52H91.1001V69.74H99.9401V72.74H94.3401V78.46Z" fill="#101010"/>
<path d="M14.54 59.67C5.28996 59.67 0.209961 54.34 0.209961 45V40.42C0.209961 34.84 1.86996 30.5 5.86996 28.25C1.99996 26.17 0.209961 22.25 0.209961 16.5V14.67C0.209961 5.33 5.28996 0 14.54 0C23.79 0 28.87 5.33 28.87 14.67V16.5C28.87 22.25 26.96 26.17 23.21 28.25C27.21 30.5 28.87 34.84 28.87 40.42V45C28.87 54.34 23.79 59.67 14.54 59.67ZM9.37996 18.25C9.37996 22.92 11.54 24.42 14.54 24.42C17.54 24.42 19.71 22.92 19.71 18.25V15C19.71 9.75 17.46 8.33 14.54 8.33C11.62 8.33 9.37996 9.75 9.37996 15V18.25ZM14.54 51.34C17.46 51.34 19.63 49.92 19.71 44.75V39.33C19.71 34.75 17.79 32.75 14.54 32.75C11.29 32.75 9.37996 34.75 9.37996 39.33V44.75C9.37996 49.92 11.62 51.34 14.54 51.34Z" fill="#101010"/>
<path d="M85.61 59.67C76.36 59.67 71.28 54.34 71.28 45V40.42C71.28 34.84 72.94 30.5 76.94 28.25C73.11 26.17 71.28 22.25 71.28 16.5V14.67C71.28 5.33 76.36 0 85.61 0C94.86 0 99.94 5.33 99.94 14.67V16.5C99.94 22.25 98.02 26.17 94.28 28.25C98.28 30.5 99.94 34.84 99.94 40.42V45C99.94 54.34 94.86 59.67 85.61 59.67ZM80.44 18.25C80.44 22.92 82.61 24.42 85.61 24.42C88.61 24.42 90.77 22.92 90.77 18.25V15C90.77 9.75 88.52 8.33 85.61 8.33C82.7 8.33 80.44 9.75 80.44 15V18.25ZM85.61 51.34C88.52 51.34 90.69 49.92 90.77 44.75V39.33C90.77 34.75 88.86 32.75 85.61 32.75C82.36 32.75 80.44 34.75 80.44 39.33V44.75C80.44 49.92 82.69 51.34 85.61 51.34Z" fill="#101010"/>
<path d="M49.2299 25.2301V26.0701C49.2299 28.4901 48.4899 30.0701 46.8499 30.8101C48.8499 31.5801 49.5999 33.3601 49.5999 35.8101V37.7201C49.5999 41.3501 47.6899 43.3001 43.9899 43.3001H38.1799V19.8201H43.7599C47.5799 19.8201 49.2299 21.6001 49.2299 25.2301ZM41.8699 23.1801V29.4001H43.3199C44.6999 29.4001 45.5399 28.7901 45.5399 26.9101V25.6001C45.5399 23.9201 44.9599 23.1801 43.6499 23.1801H41.8699ZM41.8699 32.7601V40.0001H43.9999C45.2399 40.0001 45.9199 39.4301 45.9199 37.6801V35.6801C45.9199 33.5001 45.2099 32.8301 43.5299 32.8301L41.8699 32.7601Z" fill="#101010"/>
<path d="M54.7701 35.5401L50.1001 19.8201H54.0001L56.8301 30.5401L59.6501 19.8201H63.1701L58.4601 35.5401V43.3401H54.7701V35.5401Z" fill="#101010"/>
</g>
<defs>
<clipPath id="clip0_18_376">
<rect width="99.94" height="90.67" fill="white"/>
</clipPath>
</defs>
</svg>
