<svg width="102" height="92" viewBox="0 0 102 92" fill="none" xmlns="http://www.w3.org/2000/svg">
<g clip-path="url(#clip0_18_374)">
<path d="M10.67 83.72V86.47C10.67 89.78 9.02 91.67 5.83 91.67C2.64 91.67 1 89.78 1 86.47V75.71C1 72.4 2.65 70.51 5.83 70.51C9.01 70.51 10.67 72.4 10.67 75.71V77.71H7.6V75.5C7.6 74.02 6.95 73.5 5.92 73.5C4.89 73.5 4.24 74.06 4.24 75.5V86.68C4.24 88.15 4.89 88.68 5.92 88.68C6.95 88.68 7.6 88.14 7.6 86.68V83.68L10.67 83.72Z" fill="#101010"/>
<path d="M15.8801 91.44H12.6401V70.74H15.8801V79.61H19.5601V70.74H22.8601V91.44H19.5601V82.57H15.8801V91.44Z" fill="#101010"/>
<path d="M35.7101 91.44H32.4601L31.9001 87.68H27.9001L27.3401 91.44H24.3401L27.6401 70.74H32.4601L35.7101 91.44ZM28.3201 84.87H31.4601L29.8801 74.41L28.3201 84.87Z" fill="#101010"/>
<path d="M37.21 70.74H40.46V88.48H45.8V91.48H37.21V70.74Z" fill="#101010"/>
<path d="M47.2 70.74H50.4599V88.48H55.7999V91.48H47.2V70.74Z" fill="#101010"/>
<path d="M60.4599 79.46H64.9099V82.46H60.4599V88.52H66.0599V91.52H57.1899V70.74H66.0299V73.74H60.4599V79.46Z" fill="#101010"/>
<path d="M70.92 76.45V91.45H68V70.74H72.07L75.4 83.13V70.74H78.29V91.44H74.96L70.92 76.45Z" fill="#101010"/>
<path d="M85.4598 79.91H89.9998V86.47C89.9998 89.78 88.3498 91.67 85.1698 91.67C81.9898 91.67 80.3398 89.78 80.3398 86.47V75.71C80.3398 72.4 81.9898 70.51 85.1698 70.51C88.3498 70.51 89.9998 72.4 89.9998 75.71V77.71H86.9498V75.5C86.9498 74.02 86.2998 73.5 85.2698 73.5C84.2398 73.5 83.5898 74.06 83.5898 75.5V86.68C83.5898 88.15 84.2398 88.68 85.2698 88.68C86.2998 88.68 86.9498 88.14 86.9498 86.68V82.86H85.4598V79.91Z" fill="#101010"/>
<path d="M95.3499 79.46H99.7899V82.46H95.3499V88.52H100.94V91.52H92.1099V70.74H100.94V73.74H95.3499V79.46Z" fill="#101010"/>
<path d="M15.54 60.67C6.28996 60.67 1.20996 55.34 1.20996 46V41.42C1.20996 35.84 2.87996 31.5 6.87996 29.25C3.03996 27.17 1.20996 23.25 1.20996 17.5V15.67C1.20996 6.33 6.28996 1 15.54 1C24.79 1 29.88 6.33 29.88 15.67V17.5C29.88 23.25 27.96 27.17 24.21 29.25C28.21 31.5 29.88 35.84 29.88 41.42V46C29.88 55.34 24.79 60.67 15.54 60.67ZM10.38 19.25C10.38 23.92 12.54 25.42 15.54 25.42C18.54 25.42 20.71 23.92 20.71 19.25V16C20.71 10.75 18.46 9.33 15.54 9.33C12.62 9.33 10.38 10.75 10.38 16V19.25ZM15.54 52.34C18.46 52.34 20.63 50.92 20.71 45.75V40.33C20.71 35.75 18.79 33.75 15.54 33.75C12.29 33.75 10.38 35.75 10.38 40.33V45.75C10.38 50.92 12.63 52.34 15.54 52.34Z" stroke="#101010" stroke-width="1.5" stroke-miterlimit="10"/>
<path d="M86.61 60.67C77.36 60.67 72.28 55.34 72.28 46V41.42C72.28 35.84 73.94 31.5 77.94 29.25C74.11 27.17 72.28 23.25 72.28 17.5V15.67C72.28 6.33 77.36 1 86.61 1C95.86 1 100.94 6.33 100.94 15.67V17.5C100.94 23.25 99.03 27.17 95.28 29.25C99.28 31.5 100.94 35.84 100.94 41.42V46C100.94 55.34 95.86 60.67 86.61 60.67ZM81.46 19.25C81.46 23.92 83.63 25.42 86.63 25.42C89.63 25.42 91.8 23.92 91.8 19.25V16C91.8 10.75 89.55 9.33 86.63 9.33C83.71 9.33 81.46 10.75 81.46 16V19.25ZM86.63 52.34C89.55 52.34 91.72 50.92 91.8 45.75V40.33C91.8 35.75 89.88 33.75 86.63 33.75C83.38 33.75 81.46 35.75 81.46 40.33V45.75C81.46 50.92 83.69 52.34 86.61 52.34H86.63Z" stroke="#101010" stroke-width="1.5" stroke-miterlimit="10"/>
<path d="M50.2299 26.2501V27.0901C50.2299 29.5101 49.4899 31.0901 47.8499 31.8301C49.8499 32.6001 50.5999 34.3801 50.5999 36.8301V38.7401C50.5999 42.3701 48.6899 44.3201 44.9899 44.3201H39.1799V20.8201H44.7599C48.5899 20.8201 50.2299 22.6001 50.2299 26.2501ZM42.8799 24.2001V30.4201H44.3199C45.6999 30.4201 46.5399 29.8101 46.5399 27.9301V26.6001C46.5399 24.9201 45.9699 24.1801 44.6599 24.1801L42.8799 24.2001ZM42.8799 33.7801V41.0001H44.9899C46.2399 41.0001 46.9099 40.4301 46.9099 38.6801V36.6801C46.9099 34.5001 46.1999 33.8301 44.5199 33.8301L42.8799 33.7801Z" stroke="#101010" stroke-width="1.5" stroke-miterlimit="10"/>
<path d="M55.7701 36.5401L51.1001 20.8201H54.9701L57.7901 31.5401L60.6101 20.8201H64.1401L59.4601 36.5401V44.3401H55.7601L55.7701 36.5401Z" stroke="#101010" stroke-width="1.5" stroke-miterlimit="10"/>
</g>
<defs>
<clipPath id="clip0_18_374">
<rect width="101.23" height="91.42" fill="white"/>
</clipPath>
</defs>
</svg>
