<svg width="140" height="140" viewBox="0 0 140 140" fill="none" xmlns="http://www.w3.org/2000/svg">
<path d="M140 0H0V140H140V0Z" fill="#101010"/>
<path d="M29.8851 108.706V111.434C29.8851 114.719 28.248 116.594 25.0928 116.594C21.9376 116.594 20.2905 114.719 20.2905 111.434V100.758C20.2905 97.4741 21.9277 95.5889 25.0928 95.5889C28.2579 95.5889 29.8851 97.4741 29.8851 100.758V102.743H26.8391V100.54C26.8391 99.0715 26.1941 98.5556 25.1722 98.5556C24.1502 98.5556 23.5053 99.1112 23.5053 100.54V111.623C23.5053 113.091 24.1502 113.607 25.1722 113.607C26.1941 113.607 26.8391 113.081 26.8391 111.623V108.646L29.8851 108.706Z" fill="white"/>
<path d="M35.0546 116.356H31.8398V95.8269H35.0546V104.628H38.696V95.8269H41.9603V116.356H38.696V107.555H35.0546V116.356Z" fill="white"/>
<path d="M54.7299 116.356H51.4854L50.9298 112.635H46.961L46.4053 116.356H43.4287L46.703 95.8269H51.406L54.7299 116.356ZM47.3975 109.847H50.4932L48.9454 99.4683L47.3975 109.847Z" fill="white"/>
<path d="M56.2183 95.8269H59.4429V113.429H64.7314V116.405H56.2183V95.8269Z" fill="white"/>
<path d="M66.1304 95.8269H69.3451V113.429H74.6435V116.405H66.1304V95.8269Z" fill="white"/>
<path d="M79.2572 104.479H83.6725V107.456H79.2572V113.468H84.8136V116.445H76.0425V95.8269H84.8136V98.8035H79.2572V104.479Z" fill="white"/>
<path d="M89.6656 101.482V116.366H86.7683V95.8269H90.8066L94.1106 108.15V95.8269H96.9781V116.356H93.6741L89.6656 101.482Z" fill="white"/>
<path d="M104.112 104.916H108.607V111.434C108.607 114.719 106.97 116.594 103.814 116.594C100.659 116.594 99.022 114.719 99.022 111.434V100.758C99.022 97.4741 100.659 95.5889 103.814 95.5889C106.97 95.5889 108.607 97.4741 108.607 100.758V102.743H105.571V100.54C105.571 99.0715 104.926 98.5556 103.904 98.5556C102.882 98.5556 102.237 99.1112 102.237 100.54V111.623C102.237 113.091 102.882 113.607 103.904 113.607C104.926 113.607 105.571 113.081 105.571 111.623V107.853H104.112V104.916Z" fill="white"/>
<path d="M113.905 104.479H118.32V107.456H113.905V113.468H119.461V116.445H110.69V95.8269H119.461V98.8035H113.905V104.479Z" fill="white"/>
<path d="M34.7271 85.8354C25.5492 85.8354 20.5088 80.547 20.5088 71.2798V66.7355C20.5088 61.1891 22.1658 56.8928 26.1346 54.6604C22.3245 52.5867 20.5088 48.7072 20.5088 43.002V41.1763C20.5088 31.9191 25.5492 26.6306 34.7271 26.6306C43.905 26.6306 48.9454 31.9191 48.9454 41.1763V43.002C48.9454 48.7072 47.0403 52.5867 43.3196 54.6604C47.2884 56.8928 48.9454 61.1891 48.9454 66.7355V71.2798C48.9454 80.547 43.905 85.8354 34.7271 85.8354ZM29.5974 44.7383C29.5974 49.362 31.7405 50.8602 34.7172 50.8602C37.6938 50.8602 39.8468 49.362 39.8468 44.7383V41.5137C39.8468 36.3046 37.6144 34.8957 34.7172 34.8957C31.8199 34.8957 29.5974 36.3046 29.5974 41.5137V44.7383ZM34.7271 77.5604C37.6243 77.5604 39.7774 76.1614 39.8568 71.0317V65.654C39.8568 61.1097 37.9517 59.1253 34.7271 59.1253C31.5024 59.1253 29.6073 61.1097 29.6073 65.654V71.0317C29.5974 76.1614 31.8298 77.5604 34.7271 77.5604Z" fill="white"/>
<path d="M105.233 85.8354C96.0553 85.8354 91.0149 80.547 91.0149 71.2798V66.7355C91.0149 61.1891 92.6619 56.8928 96.6308 54.6604C92.8306 52.5867 91.0149 48.7072 91.0149 43.002V41.1763C91.0149 31.9191 96.0553 26.6306 105.233 26.6306C114.411 26.6306 119.461 31.9191 119.461 41.1763V43.002C119.461 48.7072 117.556 52.5867 113.836 54.6604C117.804 56.8928 119.461 61.1891 119.461 66.7355V71.2798C119.461 80.547 114.411 85.8354 105.233 85.8354ZM100.103 44.7383C100.103 49.362 102.257 50.8602 105.233 50.8602C108.21 50.8602 110.363 49.362 110.363 44.7383V41.5137C110.363 36.3046 108.13 34.8957 105.233 34.8957C102.336 34.8957 100.103 36.3046 100.103 41.5137V44.7383ZM105.233 77.5604C108.13 77.5604 110.283 76.1614 110.363 71.0317V65.654C110.363 61.1097 108.458 59.1253 105.233 59.1253C102.009 59.1253 100.103 61.1097 100.103 65.654V71.0317C100.103 76.1614 102.346 77.5604 105.233 77.5604Z" fill="white"/>
<path d="M69.1367 51.664V52.4974C69.1367 54.8986 68.4025 56.4662 66.7753 57.1905C68.7597 57.9645 69.5038 59.7306 69.5038 62.1516V64.0963C69.5038 67.698 67.6087 69.6229 63.9376 69.6229H58.1729V46.2961H63.7093C67.4698 46.2961 69.1367 48.0623 69.1367 51.664ZM61.844 49.6796V55.8411H63.2728C64.642 55.8411 65.4755 55.2458 65.4755 53.3805V52.0311C65.4755 50.3642 64.9099 49.6299 63.6101 49.6299L61.844 49.6796ZM61.844 59.1749V66.3387H63.9376C65.1778 66.3387 65.8426 65.7731 65.8426 64.0467V62.0623C65.8426 59.8893 65.1381 59.2246 63.4712 59.2246L61.844 59.1749Z" fill="white"/>
<path d="M74.6336 61.8936L70 46.2961H73.8398L76.6378 56.9326L79.4359 46.2961H82.9383L78.3047 61.8936V69.6229H74.6336V61.8936Z" fill="white"/>
</svg>
